<?xml version="1.0" encoding="UTF-8"?>
<svg width="119px" height="32px" viewBox="0 0 119 32" version="1.1" xmlns="http://www.w3.org/2000/svg" xmlns:xlink="http://www.w3.org/1999/xlink">
    <title>编组 2</title>
    <defs>
        <linearGradient x1="100%" y1="48.4086894%" x2="7.07701165e-13%" y2="50%" id="linearGradient-1">
            <stop stop-color="#00647A" offset="0%"></stop>
            <stop stop-color="#014453" stop-opacity="0.362079327" offset="54.9511912%"></stop>
            <stop stop-color="#000000" stop-opacity="0" offset="100%"></stop>
        </linearGradient>
        <linearGradient x1="100%" y1="39.9409999%" x2="-8.55069936e-14%" y2="39.9409999%" id="linearGradient-2">
            <stop stop-color="#FE3344" offset="0%"></stop>
            <stop stop-color="#FF760F" offset="100%"></stop>
        </linearGradient>
        <linearGradient x1="100%" y1="39.9409999%" x2="-8.55069936e-14%" y2="39.9409999%" id="linearGradient-3">
            <stop stop-color="#FE3344" offset="0%"></stop>
            <stop stop-color="#FF760F" offset="100%"></stop>
        </linearGradient>
    </defs>
    <g id="页面-1" stroke="none" stroke-width="1" fill="none" fill-rule="evenodd">
        <g id="10.10一期-电商只更新首页样式2" transform="translate(-14, -56)">
            <g id="编组-2" transform="translate(14, 56)">
                <g id="编组">
                    <rect id="矩形" fill="#000000" x="0" y="0" width="32" height="32" rx="6.19354839"></rect>
                    <g id="LOGO" transform="translate(5.1613, 4.3355)">
                        <path d="M5.26612868,3.77582086 L15.5966417,3.77632393 C17.6480149,3.77642383 19.3535954,5.35562201 19.5113155,7.40092303 L20.3090581,17.7459836 C20.4757865,19.9081038 18.8582018,21.7960087 16.6960815,21.9627371 C16.5839061,21.9713873 16.4714107,21.9752122 16.3589067,21.9742011 L5.23153277,21.8741981 C3.07692271,21.8548344 1.34043653,20.1027575 1.34033156,17.9480604 L1.33944992,7.70211722 C1.33934428,5.53357802 3.097207,3.77554402 5.2657462,3.77543837 C5.2658737,3.77543837 5.2660012,3.77543837 5.2661287,3.77543837 Z" id="矩形" fill="url(#linearGradient-1)" transform="translate(10.9889, 12.8941) rotate(-7) translate(-10.9889, -12.8941)"></path>
                        <path d="M9.77159974,0 C12.6547712,0 14.9920434,2.33633129 14.9920434,5.21834198 L13.3411339,5.21834198 C13.3411339,3.24773638 11.742999,1.6502449 9.77159974,1.6502449 C7.80020046,1.6502449 6.20206559,3.24773638 6.20206559,5.21834198 L4.55115604,5.21834198 C4.55115604,2.33633129 6.8884283,0 9.77159974,0 Z" id="形状结合" fill="url(#linearGradient-2)"></path>
                        <path d="M13.296061,5.76852292 C13.296061,6.26137274 13.6955947,6.66090645 14.1884445,6.66090645 C14.6812943,6.66090645 15.080828,6.26137274 15.080828,5.76852292 L15.080828,5.21290323 L16.7427183,5.21290323 C18.2212678,5.21290323 19.4198689,6.41150438 19.4198689,7.89005384 L19.4198689,17.6267613 C19.4198689,19.1053107 18.2212678,20.3039119 16.7427183,20.3039119 L6.84845494,20.3039119 C5.73307671,20.3039119 4.65814474,20.7216586 3.83547103,21.4748362 L2.40872648,22.7810553 C1.99128489,23.1632331 1.44584227,23.3752064 0.879876378,23.3752064 C0.393934073,23.3752064 0,22.9812723 0,22.49533 L0,7.44386207 C0,6.21173752 0.998834297,5.21290323 2.23095884,5.21290323 L4.50608312,5.21290323 L4.50608312,5.76852292 C4.50608312,6.26137274 4.90561684,6.66090645 5.39846665,6.66090645 C5.89131647,6.66090645 6.29085019,6.26137274 6.29085019,5.76852292 L6.29085019,5.21290323 L13.296061,5.21290323 Z" id="形状结合" fill="url(#linearGradient-3)"></path>
                        <path d="M9.70322581,8.25806452 C11.8542023,8.25806452 13.7068091,9.53553717 14.5437386,11.3731748 C14.5633944,11.4033481 14.5746407,11.4392451 14.5746407,11.4777934 C14.5746407,11.5839145 14.4894086,11.6699426 14.3832875,11.6699426 L12.3490968,11.6680645 C12.2973297,11.6699021 12.2575381,11.6464107 12.2347562,11.6109508 L12.1561181,11.5151361 C11.5686576,10.8160443 10.6878321,10.3717062 9.70322581,10.3717062 C7.93454087,10.3717062 6.50073844,11.8055086 6.50073844,13.5741935 C6.50073844,15.3428785 7.93454087,16.7766809 9.70322581,16.7766809 C10.9788156,16.7766809 12.0802192,16.0309015 12.595199,14.9515803 L9.86335017,14.9512631 C9.68648168,14.9512631 9.54310144,14.8078829 9.54310144,14.6310144 L9.54310144,13.4596356 C9.54310144,13.2827671 9.68648168,13.1393868 9.86335017,13.1393868 L12.8765217,13.1399552 L14.7420968,13.1390645 L14.731131,13.1403887 C14.8903126,13.1403887 15.0193548,13.2694309 15.0193548,13.4286126 C15.0193548,13.4348145 15.019159,13.4409706 15.018773,13.4470751 L15.0168757,13.4102694 C15.0185245,13.4647089 15.0193548,13.5193543 15.0193548,13.5741935 C15.0193548,16.5102105 12.6392428,18.8903226 9.70322581,18.8903226 C6.76720881,18.8903226 4.38709677,16.5102105 4.38709677,13.5741935 C4.38709677,10.6381766 6.76720881,8.25806452 9.70322581,8.25806452 Z" id="形状结合" fill="#FFFFFF"></path>
                    </g>
                </g>
                <path d="M52.377,15.427 L52.367822,15.4287886 C52.573536,15.4287886 52.7403001,15.5987046 52.7403001,15.8083066 C52.7403001,15.8155462 52.7401011,15.8227384 52.7397085,15.8298779 L52.7371465,15.7858533 C52.7392439,15.856974 52.7403001,15.9283613 52.7403001,16 C52.7403001,19.8659932 49.6644291,23 45.87015,23 C42.0758709,23 39,19.8659932 39,16 C39,12.1340068 42.0758709,9 45.87015,9 C48.6512812,9 51.0464406,10.6837761 52.1272572,13.1054108 C52.1516562,13.1435304 52.1655863,13.1898773 52.1655863,13.2395701 C52.1655863,13.3793048 52.0554389,13.4925822 51.9182963,13.4925822 L49.292,13.491 L49.291,13.49 L49.2810815,13.4925288 C49.2226468,13.4925288 49.1712835,13.4616806 49.1418224,13.4150952 L49.0597124,13.3127289 C48.3005916,12.3783899 47.1535962,11.7831325 45.87015,11.7831325 C43.5844397,11.7831325 41.7315054,13.6710884 41.7315054,16 C41.7315054,18.3289116 43.5844397,20.2168675 45.87015,20.2168675 C47.5184763,20.2168675 48.9417381,19.2350385 49.6073332,17.8140489 L46.0770823,17.813253 C45.8485112,17.813253 45.6632178,17.6279596 45.6632178,17.3993886 L45.6632178,15.8413338 C45.6632178,15.6127627 45.8485112,15.4274693 46.0770823,15.4274693 L52.377,15.427 Z M54.3376523,9.6736504 L54.3376523,22.4377929 C54.3376523,22.6206497 54.485887,22.7688845 54.6687438,22.7688845 L61.9755109,22.7688845 C62.1583678,22.7688845 62.3066025,22.6206497 62.3066025,22.4377929 L62.3066025,20.3498646 C62.3066025,20.1670078 62.1583678,20.0187731 61.9755109,20.0187731 L57.5643019,20.0187731 C57.3814451,20.0187731 57.2332103,19.8705383 57.2332103,19.6876815 L57.2332103,9.6736504 C57.2332103,9.49079358 57.0849756,9.34255884 56.9021188,9.34255884 L54.6687438,9.34255884 C54.485887,9.34255884 54.3376523,9.49079358 54.3376523,9.6736504 Z M70.1061089,9.29518072 C71.8295034,9.29518072 73.2265908,10.6922681 73.2265908,12.4156627 C73.2265908,14.1390572 71.8295034,15.5361446 70.1061089,15.5361446 L63.9146405,15.5361446 L63.9146405,9.62627229 C63.9146405,9.44341547 64.0628752,9.29518072 64.245732,9.29518072 L70.1061089,9.29518072 Z M68.7117255,11.9518072 L66.6047594,11.9518072 C66.513331,11.9518072 66.4392137,12.0259246 66.4392137,12.117353 L66.4392137,14.3993842 C66.4392137,14.4908126 66.513331,14.56493 66.6047594,14.56493 L68.7117255,14.56493 C69.4333195,14.56493 70.0182869,13.9799626 70.0182869,13.2583686 C70.0182869,12.5367747 69.4333195,11.9518072 68.7117255,11.9518072 Z M70.2630501,15.5361446 C72.242625,15.5361446 73.8473875,17.1409071 73.8473875,19.1204819 C73.8473875,21.1000568 72.242625,22.7048193 70.2630501,22.7048193 L64.245732,22.7048193 C64.0628752,22.7048193 63.9146405,22.5565845 63.9146405,22.3737277 L63.9146405,15.5361446 L70.2630501,15.5361446 Z M69.2079327,17.0864017 L66.5873604,17.0864017 C66.495932,17.0864017 66.4218147,17.1605191 66.4218147,17.2519475 L66.4218147,19.9570005 C66.4218147,20.0484289 66.495932,20.1225463 66.5873604,20.1225463 L69.2079327,20.1225463 C70.0463409,20.1225463 70.726005,19.4428822 70.726005,18.604474 C70.726005,17.7660658 70.0463409,17.0864017 69.2079327,17.0864017 Z M96.3764522,9.27250809 C96.5150732,9.27250809 96.6390194,9.35886331 96.6870415,9.48890045 L101.434947,22.3455594 C101.498293,22.5170931 101.41059,22.7075013 101.239056,22.7708479 C101.202336,22.7844086 101.163502,22.7913501 101.124357,22.7913501 L98.7377597,22.7913501 C98.6308003,22.7913501 98.5358588,22.7228605 98.5021191,22.6213619 L97.8262422,20.5905081 L92.4332422,20.5905081 L91.7628628,22.6209677 C91.729245,22.7226678 91.6342039,22.7913501 91.5270915,22.7913501 L89.3078284,22.7913501 C89.1249716,22.7913501 88.9767369,22.6431154 88.9767369,22.4602586 C88.9767369,22.422126 88.9833242,22.3842801 88.9962083,22.3483901 L93.6116193,9.49173119 C93.6588293,9.36022341 93.7835144,9.27250809 93.9232394,9.27250809 L96.3764522,9.27250809 Z M95.2194794,12.7462376 L95.0270382,12.7462376 L93.3082422,17.9435081 L96.9472422,17.9435081 L95.2194794,12.7462376 Z M76.176386,9.25301205 L78.5003244,9.25301205 C78.7261087,9.25301205 78.9296135,9.38915564 79.0157822,9.59785044 L81.41342,15.4047706 L81.41342,15.4047706 L83.81808,9.59733442 C83.9043798,9.38891382 84.1077434,9.25301205 84.3333244,9.25301205 L86.5839115,9.25301205 C86.7845702,9.25301205 86.9490235,9.41224335 86.9554963,9.61279765 L87.3683693,22.4053857 C87.3749927,22.6106063 87.2139978,22.7823398 87.0087772,22.7889631 C87.0047809,22.7890921 87.0007829,22.7891566 86.9967845,22.7891566 L85.0449516,22.7891566 C84.8455164,22.7891566 84.6816074,22.631795 84.673482,22.4325254 L84.3710346,15.0152203 L84.3710346,15.0152203 L81.6655481,20.5119201 C81.6242119,20.5959022 81.5387422,20.6490957 81.4451383,20.6490957 C81.3514207,20.6490957 81.2657306,20.5961953 81.2237353,20.5124135 L78.4007746,14.8805259 L78.4007746,14.8805259 L78.1093856,22.431714 C78.1016833,22.6313152 77.9376336,22.7891566 77.7378839,22.7891566 L75.8028644,22.7891566 C75.597537,22.7891566 75.4310862,22.6227058 75.4310862,22.4173784 C75.4310862,22.4137609 75.431139,22.4101436 75.4312445,22.4065277 L75.8047661,9.61393966 C75.8106355,9.41292321 75.9752839,9.25301205 76.176386,9.25301205 Z M103.584164,9.08433735 L105.421613,9.08434412 C105.73052,9.08282461 105.98217,9.3320113 105.983689,9.64091817 C105.98371,9.64513394 105.983683,9.64934981 105.983609,9.65356497 C105.878338,16.4678252 105.881311,19.8749552 105.992551,19.8749552 C107.217281,19.8749552 108.442011,19.8749552 109.666741,19.8749552 C109.975652,19.8749552 110.226073,20.1253767 110.226073,20.4342873 L110.226073,22.2298245 C110.226073,22.5387351 109.975652,22.7891566 109.666741,22.7891566 L103.584164,22.7891566 C103.275253,22.7891566 103.024832,22.5387351 103.024832,22.2298245 L103.024832,9.64366947 C103.024832,9.33475887 103.275253,9.08433735 103.584164,9.08433735 Z M112.358091,9.08433735 L114.195539,9.08434412 C114.504446,9.08282461 114.756096,9.3320113 114.757616,9.64091817 C114.757637,9.64513394 114.75761,9.64934981 114.757535,9.65356497 C114.652264,16.4678252 114.655238,19.8749552 114.766477,19.8749552 C115.991208,19.8749552 117.215938,19.8749552 118.440668,19.8749552 C118.749578,19.8749552 119,20.1253767 119,20.4342873 L119,22.2298245 C119,22.5387351 118.749578,22.7891566 118.440668,22.7891566 L112.358091,22.7891566 C112.04918,22.7891566 111.798758,22.5387351 111.798758,22.2298245 L111.798758,9.64366947 C111.798758,9.33475887 112.04918,9.08433735 112.358091,9.08433735 Z" id="形状结合" fill="#000000"></path>
            </g>
        </g>
    </g>
</svg>