<?xml version="1.0" encoding="UTF-8"?>
<svg width="104px" height="28px" viewBox="0 0 104 28" version="1.1" xmlns="http://www.w3.org/2000/svg" xmlns:xlink="http://www.w3.org/1999/xlink">
    <title>logo@3x</title>
    <defs>
        <linearGradient x1="100%" y1="48.4086894%" x2="7.07701165e-13%" y2="50%" id="linearGradient-1">
            <stop stop-color="#00647A" offset="0%"></stop>
            <stop stop-color="#014453" stop-opacity="0.362079327" offset="54.9511912%"></stop>
            <stop stop-color="#000000" stop-opacity="0" offset="100%"></stop>
        </linearGradient>
        <linearGradient x1="100%" y1="39.9409999%" x2="-8.55069936e-14%" y2="39.9409999%" id="linearGradient-2">
            <stop stop-color="#FE3344" offset="0%"></stop>
            <stop stop-color="#FF760F" offset="100%"></stop>
        </linearGradient>
        <linearGradient x1="100%" y1="39.9409999%" x2="-8.55069936e-14%" y2="39.9409999%" id="linearGradient-3">
            <stop stop-color="#FE3344" offset="0%"></stop>
            <stop stop-color="#FF760F" offset="100%"></stop>
        </linearGradient>
    </defs>
    <g id="页面-1" stroke="none" stroke-width="1" fill="none" fill-rule="evenodd">
        <g id="落地页" transform="translate(-14, -14)">
            <g id="logo" transform="translate(14, 14)">
                <rect id="矩形" fill="#000000" x="0" y="0" width="28" height="28" rx="6.46153846"></rect>
                <g id="LOGO" transform="translate(4.5161, 3.7935)">
                    <path d="M5.92927668,3.3039076 L12.4236828,3.30422387 C14.9090003,3.3043449 16.9753767,5.21760423 17.1664607,7.69556507 L17.6596987,14.0918355 C17.8616966,16.7113273 15.9019305,18.9985966 13.2824387,19.2005945 C13.1465338,19.2110746 13.0102413,19.2157085 12.8739384,19.2144836 L5.88706624,19.1516918 C3.27667329,19.1282319 1.1728535,17.0055233 1.17272632,14.3950249 L1.17195434,8.06076666 C1.17182635,5.43349801 3.30154464,3.3035722 5.92881329,3.30344421 C5.92896776,3.3034442 5.92912223,3.3034442 5.9292767,3.30344421 Z" id="矩形" fill="url(#linearGradient-1)" transform="translate(9.6153, 11.2824) rotate(-7) translate(-9.6153, -11.2824)"></path>
                    <path d="M8.55014977,0 C11.0729248,0 13.118038,2.04428988 13.118038,4.56604923 L11.6734922,4.56604923 C11.6734922,2.84176933 10.2751241,1.44396429 8.55014977,1.44396429 C6.82517541,1.44396429 5.42680739,2.84176933 5.42680739,4.56604923 L3.98226154,4.56604923 C3.98226154,2.04428988 6.02737476,0 8.55014977,0 Z" id="形状结合" fill="url(#linearGradient-2)"></path>
                    <path d="M11.6340533,5.04745755 C11.6340533,5.47870114 11.9836453,5.82829315 12.4148889,5.82829315 C12.8461325,5.82829315 13.1957245,5.47870114 13.1957245,5.04745755 L13.1957245,4.56129032 L13.7489144,4.56129032 C15.5402339,4.56129032 16.9923853,6.01344172 16.9923853,7.80476126 L16.9923853,14.522452 C16.9923853,16.3137715 15.5402339,17.7659229 13.7489144,17.7659229 L6.46500043,17.7659229 C5.18505085,17.7659229 3.95151528,18.2453071 3.00745806,19.1096143 L2.10763567,19.9334234 C1.74237428,20.267829 1.26511199,20.4533056 0.769891831,20.4533056 C0.344692314,20.4533056 0,20.1086133 0,19.6834138 L4.4408921e-16,7.26418277 C4.4408921e-16,5.77141649 1.21012617,4.56129032 2.70289245,4.56129032 L3.94282273,4.56129032 L3.94282273,5.04745755 C3.94282273,5.47870114 4.29241473,5.82829315 4.72365832,5.82829315 C5.15490191,5.82829315 5.50449392,5.47870114 5.50449392,5.04745755 L5.50449392,4.56129032 L11.6340533,4.56129032 Z" id="形状结合" fill="url(#linearGradient-3)"></path>
                    <path d="M12.8987097,11.4968065 C13.0351634,11.5040859 13.1419355,11.614592 13.1419355,11.750036 C13.1419355,11.7544958 13.1418197,11.7589286 13.141591,11.7633316 L13.1419355,11.8774194 C13.1419355,14.4464342 11.0593374,16.5290323 8.49032258,16.5290323 C5.92130771,16.5290323 3.83870968,14.4464342 3.83870968,11.8774194 C3.83870968,9.30840449 5.92130771,7.22580645 8.49032258,7.22580645 C10.3794063,7.22580645 12.0054766,8.35190037 12.7338812,9.9694358 C12.7465662,9.99080337 12.7528106,10.0162002 12.7528106,10.0430692 L12.7447444,9.99374575 L12.7447097,9.99680645 L12.7528106,10.0430692 C12.7528106,10.117354 12.7050806,10.1803867 12.6384464,10.2026284 L12.5853765,10.2111998 L10.8047097,10.2098065 C10.7980234,10.2111643 10.7962742,10.2111238 10.7945354,10.2110437 C10.7548281,10.2071842 10.7256939,10.189036 10.7075143,10.1627363 L10.6290501,10.0667934 C10.1150415,9.46024857 9.34764347,9.07524291 8.49032258,9.07524291 C6.94272326,9.07524291 5.68814613,10.32982 5.68814613,11.8774194 C5.68814613,13.4250187 6.94272326,14.6795958 8.49032258,14.6795958 C9.60646283,14.6795958 10.5701904,14.0270397 11.0207982,13.0826347 L8.73820742,13.0823552 C8.52392444,13.0823552 8.35021376,12.9086445 8.35021376,12.6943616 L8.35021376,11.8849571 C8.35021376,11.6706741 8.52392444,11.4969635 8.73820742,11.4969635 L12.8987097,11.4968065 Z" id="形状结合" fill="#FFFFFF"></path>
                </g>
                <path d="M45.706,13.509 L45.6968443,13.5103902 C45.876844,13.5103902 46.0227625,13.6560325 46.0227625,13.8356914 C46.0227625,13.8421564 46.0225736,13.8485773 46.0222009,13.854949 L46.0199892,13.8159814 C46.0218337,13.8770956 46.0227625,13.9384395 46.0227625,14 C46.0227625,17.3137085 43.3313755,20 40.0113813,20 C36.6913871,20 34,17.3137085 34,14 C34,10.6862915 36.6913871,8 40.0113813,8 C42.4437875,8 44.5387691,9.44195171 45.4850861,11.5161512 C45.5071437,11.5498086 45.519888,11.5903636 45.519888,11.6339173 C45.519888,11.7536899 45.423509,11.8507847 45.3035092,11.8507847 L43.003,11.849 C42.9455464,11.850739 42.9011584,11.8250477 42.875211,11.7860703 L42.7942725,11.6870418 C42.129998,10.8916949 41.1299109,10.3855422 40.0113813,10.3855422 C38.0113848,10.3855422 36.3900673,12.0037901 36.3900673,14 C36.3900673,15.9962099 38.0113848,17.6144578 40.0113813,17.6144578 C41.4535503,17.6144578 42.6988196,16.7730261 43.2812754,15.5551943 L40.192447,15.5542169 C39.9924473,15.5542169 39.8303156,15.3920851 39.8303156,15.1920855 L39.8303156,13.8713908 C39.8303156,13.6713911 39.9924473,13.5092594 40.192447,13.5092594 L45.706,13.509 Z M47.4204457,8.58332698 L47.4204457,19.5121959 C47.4204457,19.6721956 47.5501511,19.801901 47.7101509,19.801901 L54.1035721,19.801901 C54.2635718,19.801901 54.3932772,19.6721956 54.3932772,19.5121959 L54.3932772,17.7343678 C54.3932772,17.574368 54.2635718,17.4446626 54.1035721,17.4446626 L50.2437642,17.4446626 C50.0837644,17.4446626 49.954059,17.3149572 49.954059,17.1549575 L49.954059,8.58332698 C49.954059,8.42332726 49.8243536,8.29362186 49.6643539,8.29362186 L47.7101509,8.29362186 C47.5501511,8.29362186 47.4204457,8.42332726 47.4204457,8.58332698 Z M55.8003104,8.54271717 C55.8003104,8.38271745 55.9300158,8.25301205 56.0900155,8.25301205 L61.2735681,8.25301205 C62.7507635,8.25301205 63.9482669,9.45051549 63.9482669,10.9277108 C63.9482669,12.4049062 62.7507635,13.6024096 61.2735681,13.6024096 L61.4191749,13.6024096 C63.1159533,13.6024096 64.491464,14.9779203 64.491464,16.6746988 C64.491464,18.3714772 63.1159533,19.746988 61.4191749,19.746988 L56.0900155,19.746988 C55.9300158,19.746988 55.8003104,19.6172826 55.8003104,19.4572828 L55.8003104,8.54271717 Z M60.4590496,14.9312015 L58.1389404,14.9312015 C58.0589405,14.9312015 57.9940878,14.9960542 57.9940878,15.076054 L57.9940878,17.3887585 C57.9940878,17.4687584 58.0589405,17.5336111 58.1389404,17.5336111 L60.4590496,17.5336111 C61.1776852,17.5336111 61.7602544,16.9510419 61.7602544,16.2324063 C61.7602544,15.5137707 61.1776852,14.9312015 60.4590496,14.9312015 Z M60.0210913,10.5301205 L58.1541645,10.5301205 C58.0741647,10.5301205 58.009312,10.5949732 58.009312,10.674973 L58.009312,12.6250875 C58.009312,12.7050873 58.0741647,12.76994 58.1541645,12.76994 L60.0210913,12.76994 C60.6396004,12.76994 61.1410011,12.2685393 61.1410011,11.6500302 C61.1410011,11.0315212 60.6396004,10.5301205 60.0210913,10.5301205 Z M84.2058453,8.23357836 C84.3264226,8.23357836 84.4343928,8.30826257 84.476927,8.42108865 L88.6268862,19.4292573 C88.6833268,19.5789716 88.6077136,19.7460932 88.4579993,19.8025338 C88.4253347,19.814848 88.3907133,19.8211573 88.3558045,19.8211573 L86.2695141,19.8211573 C86.1764221,19.8211573 86.0936736,19.7618541 86.0637591,19.6736994 L85.4732801,17.9345784 L80.7542801,17.9345784 L80.1681008,19.6733494 C80.1382929,19.7616836 80.0554553,19.8211573 79.9622274,19.8211573 L78.0222554,19.8211573 C77.8622557,19.8211573 77.7325503,19.6914519 77.7325503,19.5314521 C77.7325503,19.4974431 77.7385385,19.4636996 77.7502407,19.4317672 L81.7843919,8.42359857 C81.8262188,8.30946377 81.934849,8.23357836 82.0564066,8.23357836 L84.2058453,8.23357836 Z M83.1920445,11.2110608 L83.0236584,11.2110608 L81.5192801,15.6655784 L84.7032801,15.6655784 L83.1920445,11.2110608 Z M66.5291457,8.21686747 L68.5653651,8.21686747 C68.7616255,8.21686747 68.938786,8.33444966 69.0150142,8.51530156 L71.1117425,13.4898033 L71.1117425,13.4898033 L73.2146179,8.51484485 C73.2909596,8.33423653 73.467994,8.21686747 73.6640741,8.21686747 L75.6361342,8.21686747 C75.8116258,8.21686747 75.955485,8.35606503 75.9612637,8.53146149 L76.3220902,19.4832591 C76.3280062,19.6628233 76.1872367,19.8131846 76.0076726,19.8191007 C76.0041031,19.8192183 76.000532,19.8192771 75.9969606,19.8192771 L74.2890677,19.8192771 C74.1146687,19.8192771 73.9712963,19.6817485 73.9640432,19.5075004 L73.6996553,13.1559031 L73.6996553,13.1559031 L71.3333393,17.8654002 C71.2965166,17.9386856 71.2215122,17.9849392 71.139496,17.9849392 C71.05738,17.9849392 70.9821819,17.9389465 70.9447765,17.8658446 L68.4756778,13.0404508 L68.4756778,13.0404508 L68.2209536,19.5067758 C68.2140779,19.6813203 68.0705796,19.8192771 67.8958997,19.8192771 L66.2027101,19.8192771 C66.0230486,19.8192771 65.8774041,19.6736327 65.8774041,19.4939711 C65.8774041,19.4907399 65.8774522,19.4875089 65.8775485,19.4842792 L66.2039842,8.5324815 C66.2092244,8.35667198 66.3532581,8.21686747 66.5291457,8.21686747 Z M90.5111435,8.07228916 L92.1189112,8.07229459 C92.3892049,8.0710211 92.6093537,8.28910513 92.6106272,8.5593989 C92.6106388,8.561863 92.6106318,8.56432714 92.6106062,8.56679113 C92.5185473,14.4031904 92.5211841,17.3213902 92.618482,17.3213902 C93.6901209,17.3213902 94.7617598,17.3213902 95.8333987,17.3213902 C96.1036954,17.3213902 96.3228143,17.540509 96.3228143,17.8108058 L96.3228143,19.3298615 C96.3228143,19.6001583 96.1036954,19.8192771 95.8333987,19.8192771 L90.5111435,19.8192771 C90.2408467,19.8192771 90.0217279,19.6001583 90.0217279,19.3298615 L90.0217279,8.56170476 C90.0217279,8.29140799 90.2408467,8.07228916 90.5111435,8.07228916 Z M98.1883292,8.07228916 L99.7960969,8.07229459 C100.066391,8.0710211 100.286539,8.28910513 100.287813,8.5593989 C100.287825,8.561863 100.287818,8.56432714 100.287792,8.56679113 C100.195733,14.4031904 100.19837,17.3213902 100.295668,17.3213902 C101.367307,17.3213902 102.438945,17.3213902 103.510584,17.3213902 C103.780881,17.3213902 104,17.540509 104,17.8108058 L104,19.3298615 C104,19.6001583 103.780881,19.8192771 103.510584,19.8192771 L98.1883292,19.8192771 C97.9180324,19.8192771 97.6989136,19.6001583 97.6989136,19.3298615 L97.6989136,8.56170476 C97.6989136,8.29140799 97.9180324,8.07228916 98.1883292,8.07228916 Z" id="形状结合" fill="#FFFFFF"></path>
            </g>
        </g>
    </g>
</svg>