<?xml version="1.0" encoding="UTF-8"?>
<svg width="24px" height="24px" viewBox="0 0 24 24" version="1.1" xmlns="http://www.w3.org/2000/svg" xmlns:xlink="http://www.w3.org/1999/xlink">
    <title>编组 8@3x</title>
    <g id="页面-1" stroke="none" stroke-width="1" fill="none" fill-rule="evenodd">
        <g id="点右上角加号" transform="translate(-257, -99)">
            <g id="编组-2" transform="translate(247, 83.2485)">
                <g id="编组-8" transform="translate(10, 15.7515)">
                    <rect id="矩形" fill="#D8D8D8" opacity="0" x="0" y="0" width="24" height="24"></rect>
                    <path d="M12.0096078,3.58170455 C16.9940567,3.58170455 21.3564728,7.19177754 21.3564728,11.1793367 C21.3564728,15.1668958 16.9940567,18.7875895 12.0096078,18.7875895 C10.9898772,18.7875895 10.0036269,18.6360491 9.0798376,18.3608296 L9.14404019,18.3921089 L6.46229452,19.5778021 C6.40067955,19.6050442 6.3331821,19.616283 6.2660642,19.6104757 C6.04597261,19.5914324 5.88299071,19.3975754 5.90203393,19.1774838 L6.09854933,16.9015876 C4.11656651,15.4712698 2.84063982,13.3812348 2.84063982,11.1793367 C2.84063982,7.19177754 7.02515886,3.58170455 12.0096078,3.58170455 Z" id="形状结合" fill="#FFFFFF"></path>
                </g>
            </g>
        </g>
    </g>
</svg>