<?xml version="1.0" encoding="UTF-8"?>
<svg width="20px" height="20px" viewBox="0 0 20 20" version="1.1" xmlns="http://www.w3.org/2000/svg" xmlns:xlink="http://www.w3.org/1999/xlink">
    <title>编组备份@3x</title>
    <g id="页面-1" stroke="none" stroke-width="1" fill="none" fill-rule="evenodd">
        <g id="导航入口图标" transform="translate(-343, -53)">
            <g id="编组备份" transform="translate(343, 53)">
                <rect id="矩形" fill="#D8D8D8" opacity="0" x="0" y="0" width="20" height="20"></rect>
                <circle id="椭圆形" stroke="#1C1C1C" stroke-width="1.5" cx="10" cy="10" r="8.25"></circle>
                <path d="M5.85812923,9.48364853 L13.8581292,9.48364853 C14.1342716,9.48364853 14.3581292,9.70750616 14.3581292,9.98364853 C14.3581292,10.2597909 14.1342716,10.4836485 13.8581292,10.4836485 L5.85812923,10.4836485 C5.58198686,10.4836485 5.35812923,10.2597909 5.35812923,9.98364853 C5.35812923,9.70750616 5.58198686,9.48364853 5.85812923,9.48364853 Z" id="矩形" stroke="#1C1C1C" stroke-width="0.5" fill="#1C1C1C"></path>
                <path d="M5.96412732,9.41918842 L13.8170294,9.41918842 C14.0931718,9.41918842 14.3170294,9.64304605 14.3170294,9.91918842 C14.3170294,10.1953308 14.0931718,10.4191884 13.8170294,10.4191884 L5.96412732,10.4191884 C5.68798495,10.4191884 5.46412732,10.1953308 5.46412732,9.91918842 C5.46412732,9.64304605 5.68798495,9.41918842 5.96412732,9.41918842 Z" id="矩形备份" stroke="#1C1C1C" stroke-width="0.5" fill="#1C1C1C" transform="translate(9.8906, 9.9192) rotate(90) translate(-9.8906, -9.9192)"></path>
            </g>
        </g>
    </g>
</svg>