<?xml version="1.0" encoding="UTF-8"?>
<svg width="32px" height="32px" viewBox="0 0 32 32" version="1.1" xmlns="http://www.w3.org/2000/svg" xmlns:xlink="http://www.w3.org/1999/xlink">
    <title>FB</title>
    <g id="页面-1" stroke="none" stroke-width="1" fill="none" fill-rule="evenodd">
        <g id="落地页" transform="translate(-60, -417)" fill-rule="nonzero">
            <g id="FB" transform="translate(60, 417)">
                <path d="M0,16 C0,24.8363356 7.16366436,32 16,32 C24.8363356,32 32,24.8363356 32,16 C32,7.16366436 24.8363356,0 16,0 C7.16366436,0 0,7.16366436 0,16 Z" id="路径" fill="#0765FE"></path>
                <path d="M13.2126251,10.0557352 L13.2126251,12.7396459 L11.2468052,12.7396459 L11.2468052,16.0209392 L13.2126251,16.0209392 L13.2126251,25.7712086 L17.2514242,25.7712086 L17.2514242,16.0209392 L19.9612009,16.0209392 C19.9612009,16.0209392 20.2149346,14.4468052 20.3368745,12.7273287 L17.2662048,12.7273287 L17.2662048,10.4831409 C17.2662048,10.1481139 17.7059276,9.69730562 18.1407236,9.69730562 L20.3418014,9.69730562 L20.3418014,6.2817552 L17.3499615,6.2817552 C13.112856,6.2817552 13.2126251,9.56551193 13.2126251,10.0557352 L13.2126251,10.0557352 Z" id="路径" fill="#FFFFFF"></path>
            </g>
        </g>
    </g>
</svg>