<?xml version="1.0" encoding="UTF-8"?>
<svg width="168px" height="42px" viewBox="0 0 168 42" version="1.1" xmlns="http://www.w3.org/2000/svg" xmlns:xlink="http://www.w3.org/1999/xlink">
    <title>google@2x</title>
    <g id="页面-1" stroke="none" stroke-width="1" fill="none" fill-rule="evenodd">
        <g id="落地页" transform="translate(-12, -280)">
            <g id="google" transform="translate(12, 280)">
                <rect id="矩形" fill="#000000" x="0" y="0" width="168" height="42" rx="21"></rect>
                <g id="编组" transform="translate(39, 10)" fill-rule="nonzero">
                    <path d="M76.0265209,18.297331 L77.4891424,18.297331 L77.4891424,8.41720033 L76.0265209,8.41720033 L76.0265209,18.297331 Z M89.2036567,11.9765476 L87.526489,16.2598055 L87.4765945,16.2598055 L85.7359894,11.9765476 L84.1600362,11.9765476 L86.7709438,17.963036 L85.2819495,21.2932695 L86.8080083,21.2932695 L90.83093,11.976835 L89.2036567,11.9765476 Z M80.9062024,17.1751114 C80.4279281,17.1751114 79.7593418,16.9333528 79.7593418,16.3360331 C79.7593418,15.5734698 80.5918671,15.2811323 81.3103478,15.2811323 C81.953274,15.2811323 82.2562049,15.4207272 82.6468075,15.6114758 C82.5334757,16.5267817 81.7515577,17.1751114 80.9062024,17.1751114 Z M81.0836843,11.7604377 C80.0244954,11.7604377 78.9275294,12.2308791 78.4734895,13.2731351 L79.7721719,13.8195167 C80.0494427,13.2731351 80.5662071,13.0953186 81.1086315,13.0953186 C81.8656023,13.0953186 82.6346902,13.5525405 82.6468075,14.3662575 L82.6468075,14.4677746 C82.3816539,14.3152475 81.8142822,14.0865647 81.1214615,14.0865647 C79.7208518,14.0865647 78.2960076,14.8617009 78.2960076,16.3107437 C78.2960076,17.6326207 79.4442938,18.4842718 80.7301461,18.4842718 C81.7130677,18.4842718 82.2562049,18.0394073 82.5962002,17.5180997 L82.6468075,17.5180997 L82.6468075,18.2811659 L84.0595344,18.2811659 L84.0595344,14.493064 C84.0595344,12.7390391 82.7601393,11.7604377 81.0836843,11.7604377 Z M72.0420892,13.1792337 L69.9607761,13.1792337 L69.9607761,9.79281742 L72.0420892,9.79281742 C73.1354914,9.79281742 73.7563215,10.7053932 73.7563215,11.4859896 C73.7563215,12.2516423 73.1354914,13.1792337 72.0420892,13.1792337 Z M72.004312,8.41748771 L68.4988674,8.41748771 L68.4988674,18.2976184 L69.9607761,18.2976184 L69.9607761,14.5545634 L72.004312,14.5545634 C73.625883,14.5545634 75.2196557,13.3716347 75.2196557,11.4863488 C75.2196557,9.60142222 73.625883,8.41748771 72.004312,8.41748771 Z M52.888591,17.1767639 C51.8777998,17.1767639 51.0319456,16.3234602 51.0319456,15.1526015 C51.0319456,13.9680923 51.8777998,13.1027905 52.888591,13.1027905 C53.8864096,13.1027905 54.6695393,13.9681641 54.6695393,15.1526015 C54.6695393,16.3234602 53.8864096,17.1767639 52.888591,17.1767639 Z M54.568396,12.5296108 L54.51786,12.5296108 C54.1895543,12.1350378 53.5576761,11.7785426 52.7623579,11.7785426 C51.0947414,11.7785426 49.566473,13.2556049 49.566473,15.1526015 C49.566473,17.036666 51.0947414,18.5007962 52.7623579,18.5007962 C53.5576761,18.5007962 54.1895543,18.1442292 54.51786,17.7370834 L54.568396,17.7370834 L54.568396,18.2204568 C54.568396,19.5068424 53.8864096,20.1940403 52.7874477,20.1940403 C51.8909862,20.1940403 51.3351616,19.5447766 51.1075714,18.9973892 L49.8320543,19.53206 C50.1980661,20.4229386 51.1704385,21.5182881 52.787519,21.5182881 C54.5056715,21.5182881 55.9582428,20.4995254 55.9582428,18.0167043 L55.9582428,11.9821515 L54.5684673,11.9821515 L54.568396,12.5296108 Z M56.9689627,18.2970437 L58.4335086,18.2970437 L58.4335086,8.41691295 L56.9689627,8.41691295 L56.9689627,18.2970437 Z M60.5936551,15.0377932 C60.5559491,13.7390503 61.5920439,13.0771419 62.3368974,13.0771419 C62.9185247,13.0771419 63.4103418,13.3701259 63.5749936,13.7899884 L60.5936551,15.0377932 Z M65.140968,13.9171541 C64.8629844,13.1664452 64.0169163,11.7785426 62.2862902,11.7785426 C60.5682089,11.7785426 59.1410125,13.1407966 59.1410125,15.1396694 C59.1410125,17.0240213 60.5559491,18.5008681 62.4502292,18.5008681 C63.9784263,18.5008681 64.8629844,17.5589795 65.2293525,17.0113047 L64.0924708,16.2473045 C63.7132727,16.807624 63.1957955,17.1768357 62.4502292,17.1768357 C61.705447,17.1768357 61.1746408,16.8329853 60.8341466,16.1581448 L65.292077,14.2994416 L65.140968,13.9171541 Z M29.617514,12.8098783 L29.617514,14.2357869 L33.0026416,14.2357869 C32.9015696,15.037865 32.6362734,15.6234021 32.2320568,16.0309072 C31.7392417,16.5272846 30.9687282,17.0748876 29.6174427,17.0748876 C27.5332785,17.0748876 25.9039381,15.3817154 25.9039381,13.2809662 C25.9039381,11.1802171 27.5332785,9.48675753 29.6174427,9.48675753 C30.7417082,9.48675753 31.5625439,9.93248419 32.1689046,10.5053766 L33.1670083,9.49933041 C32.3204413,8.68467944 31.1964609,8.0608489 29.6174427,8.0608489 C26.7624085,8.0608489 24.3624834,10.4035003 24.3624834,13.2809662 C24.3624834,16.158073 26.7624085,18.5008681 29.6174427,18.5008681 C31.158256,18.5008681 32.3205126,17.9914867 33.2298041,17.036666 C34.1646131,16.0944901 34.4552128,14.7704577 34.4552128,13.7008287 C34.4552128,13.3701978 34.4296954,13.064569 34.3792307,12.8098783 L29.617514,12.8098783 Z M38.3041454,17.1767639 C37.2934255,17.1767639 36.4217687,16.3364642 36.4217687,15.1396694 C36.4217687,13.9301581 37.2934255,13.1028624 38.3041454,13.1028624 C39.3144376,13.1028624 40.1860944,13.9301581 40.1860944,15.1396694 C40.1860944,16.3364642 39.3144376,17.1767639 38.3041454,17.1767639 Z M38.3041454,11.7785426 C36.4594034,11.7785426 34.9565812,13.1916629 34.9565812,15.1396694 C34.9565812,17.0748876 36.4594034,18.5008681 38.3041454,18.5008681 C40.1481033,18.5008681 41.6512818,17.0748876 41.6512818,15.1396694 C41.6512818,13.1916629 40.1481033,11.7785426 38.3041454,11.7785426 Z M45.6059194,17.1767639 C44.595841,17.1767639 43.7239704,16.3364642 43.7239704,15.1396694 C43.7239704,13.9301581 44.5959123,13.1028624 45.6059194,13.1028624 C46.6166393,13.1028624 47.4879397,13.9301581 47.4879397,15.1396694 C47.4879397,16.3364642 46.6166393,17.1767639 45.6059194,17.1767639 Z M45.6059194,11.7785426 C43.7618902,11.7785426 42.2590681,13.1916629 42.2590681,15.1396694 C42.2590681,17.0748876 43.7618902,18.5008681 45.6059194,18.5008681 C47.4505901,18.5008681 48.9534835,17.0748876 48.9534835,15.1396694 C48.9534835,13.1916629 47.4505901,11.7785426 45.6059194,11.7785426 Z" id="形状" fill="#FFFFFF"></path>
                    <g id="编组-18" transform="translate(0, 0.2322)">
                        <path d="M8.42461398,9.70722124 L0.077906688,18.6372731 C0.0782630773,18.6390692 0.0788333,18.6406498 0.0791896893,18.6425177 C0.335148442,19.6122103 1.21386175,20.3262064 2.25672795,20.3262064 C2.67356081,20.3262064 3.06494747,20.2126194 3.40059486,20.0131775 L3.42725277,19.9974435 L12.8230987,14.5325501 L8.42461398,9.70722124 Z" id="路径" fill="#EB3131"></path>
                        <path d="M16.8704688,8.18690822 L16.8624856,8.18137615 L12.805992,5.8110644 L8.23587024,9.91018349 L12.821887,14.5320471 L16.856926,12.1853006 C17.5643586,11.8003548 18.0446288,11.0486401 18.0446288,10.1818296 C18.0446288,9.32112596 17.5709162,8.57314719 16.8704688,8.18690822 Z" id="路径" fill="#F6B60B"></path>
                        <path d="M0.0764811311,1.68809275 C0.0263728038,1.87460249 0,2.06994917 0,2.27283958 L0,18.0529573 C0,18.2554166 0.0260164146,18.4514099 0.0768375203,18.6372731 L8.71172116,9.93547295 L0.0764811311,1.68809275 Z" id="路径" fill="#5778C5"></path>
                        <path d="M8.4869821,10.1631499 L12.8075601,5.80955565 L3.4223346,0.324804268 C3.08119882,0.118860444 2.68304076,0 2.25701306,0 C1.21414687,0 0.334293108,0.715296461 0.0782630773,1.68615294 C0.077906688,1.68708692 0.077906688,1.68773353 0.077906688,1.68852382 L8.4869821,10.1631499 Z" id="路径" fill="#3BAD49"></path>
                    </g>
                    <path d="M29.3405283,2.31892099 L27.0533647,2.31892099 L27.0533647,2.88937066 L28.7672406,2.88937066 C28.7206961,3.35492655 28.5369418,3.72047415 28.2269545,3.98594159 C27.9170384,4.25148088 27.5213038,4.38482529 27.0533647,4.38482529 C26.5400216,4.38482529 26.1051555,4.20456607 25.748695,3.84649036 C25.3995048,3.48094276 25.2219517,3.02896558 25.2219517,2.48445198 C25.2219517,1.93993838 25.3995048,1.48794682 25.748695,1.12247107 C26.1051555,0.764395366 26.5400216,0.585321589 27.0533647,0.585321589 C27.3168076,0.585321589 27.5679195,0.631000669 27.7981469,0.731044895 C28.0285169,0.831017277 28.213483,0.970576278 28.3580344,1.14965724 L28.7929719,0.711294692 C28.5956748,0.485270178 28.3458459,0.312432551 28.0357873,0.186466632 C27.7258712,0.0604935286 27.4024836,3.59225237e-05 27.0532934,3.59225237e-05 C26.3685271,3.59225237e-05 25.7878978,0.23957449 25.3137575,0.717473366 C24.8396173,1.19654332 24.601977,1.78683658 24.601977,2.48445198 C24.601977,3.18206737 24.8396173,3.77363948 25.3137575,4.25155273 C25.7878265,4.72932228 26.3685271,4.96899735 27.0532934,4.96899735 C27.7724156,4.96899735 28.3457746,4.73679417 28.7867707,4.26505959 C29.1750924,3.87242642 29.3735299,3.34149153 29.3735299,2.67714039 C29.3735299,2.56477474 29.3601297,2.44486536 29.3405283,2.31892099 Z M30.2265832,0.106115133 L30.2265832,4.86266669 L32.9817572,4.86266669 L32.9817572,4.27856646 L30.8330152,4.27856646 L30.8330152,2.76967681 L32.7710599,2.76967681 L32.7710599,2.19922715 L30.8330152,2.19922715 L30.8330152,0.691479829 L32.9817572,0.691479829 L32.9817572,0.106115133 L30.2265832,0.106115133 Z M36.8450878,0.691494198 L36.8450878,0.106129502 L33.6023021,0.106129502 L33.6023021,0.691494198 L34.9205146,0.691494198 L34.9205146,4.86266669 L35.5268753,4.86266669 L35.5268753,0.691494198 L36.8450878,0.691494198 Z M39.7808798,0.106129502 L39.1745192,0.106129502 L39.1745192,4.86266669 L39.7808798,4.86266669 L39.7808798,0.106129502 Z M43.7834874,0.691494198 L43.7834874,0.106129502 L40.540773,0.106129502 L40.540773,0.691494198 L41.8588429,0.691494198 L41.8588429,4.86266669 L42.4652749,4.86266669 L42.4652749,0.691494198 L43.7834874,0.691494198 Z M49.9026907,0.724844668 C49.4346803,0.239538567 48.8613926,0 48.176555,0 C47.4905057,0 46.917218,0.239531383 46.4492076,0.717430259 C45.9811973,1.18915046 45.7509698,1.78058606 45.7509698,2.48438013 C45.7509698,3.1881742 45.9812686,3.77974631 46.4492076,4.25148088 C46.917218,4.72932228 47.4905057,4.96892551 48.176555,4.96892551 C48.8551914,4.96892551 49.4346803,4.72932228 49.9026907,4.25148088 C50.370701,3.77974631 50.6009285,3.18824605 50.6009285,2.48438013 C50.6009285,1.78676474 50.3706297,1.19647147 49.9026907,0.724844668 Z M46.8841451,1.12242797 C47.233264,0.764352259 47.6620715,0.585278482 48.176555,0.585278482 C48.6898268,0.585278482 49.1186343,0.764359443 49.4616233,1.12242797 C49.8108135,1.47433937 49.9822367,1.93361601 49.9822367,2.48438013 C49.9822367,3.03643747 49.8108135,3.49444963 49.4616233,3.84641851 C49.1186343,4.20449422 48.6898268,4.38475344 48.176555,4.38475344 C47.6620715,4.38475344 47.233264,4.20449422 46.8841451,3.84641851 C46.5422965,3.48704959 46.370802,3.03636562 46.370802,2.48438013 C46.370802,1.93361601 46.5422965,1.48173941 46.8841451,1.12242797 Z M52.0416676,1.90035175 L52.0159363,0.982840228 L52.0416676,0.982840228 L54.4403097,4.86266669 L55.0736847,4.86266669 L55.0736847,0.106086395 L54.4672528,0.106086395 L54.4672528,2.88937066 L54.4929841,3.80690374 L54.4672528,3.80690374 L52.1739593,0.106086395 L51.4352357,0.106086395 L51.4352357,4.86266669 L52.0416676,4.86266669 L52.0416676,1.90035175 Z" id="形状" stroke="#FFFFFF" stroke-width="0.1906619" fill="#FFFFFF"></path>
                </g>
            </g>
        </g>
    </g>
</svg>