<?xml version="1.0" encoding="UTF-8"?>
<svg width="24px" height="24px" viewBox="0 0 24 24" version="1.1" xmlns="http://www.w3.org/2000/svg" xmlns:xlink="http://www.w3.org/1999/xlink">
    <title>编组 34@3x</title>
    <g id="页面-1" stroke="none" stroke-width="1" fill="none" fill-rule="evenodd">
        <g id="落地页" transform="translate(-108, -2128)">
            <g id="编组-12" transform="translate(0, 2061)">
                <g id="编组-34" transform="translate(108, 67)">
                    <circle id="椭圆形备份-7" fill="#111827" cx="12" cy="12" r="12"></circle>
                    <g id="instagram" transform="translate(4.8066, 4.8048)" fill="#FFFFFF" fill-rule="nonzero">
                        <path d="M7.15897233,3.48659972 C5.12573188,3.48659972 3.48480832,5.12752328 3.48480832,7.16076373 C3.48480832,9.19400418 5.12573188,10.8349277 7.15897233,10.8349277 C9.19221277,10.8349277 10.8331363,9.19400418 10.8331363,7.16076373 C10.8331363,5.12752328 9.19221277,3.48659972 7.15897233,3.48659972 Z M7.15897233,9.54870163 C5.84408379,9.54870163 4.77103443,8.47565226 4.77103443,7.16076373 C4.77103443,5.84587519 5.84408379,4.77282583 7.15897233,4.77282583 C8.47386086,4.77282583 9.54691023,5.84587519 9.54691023,7.16076373 C9.54691023,8.47565226 8.47386086,9.54870163 7.15897233,9.54870163 Z M10.983614,2.4798322 C10.5088927,2.4798322 10.1255328,2.86319207 10.1255328,3.33791341 C10.1255328,3.81263475 10.5088927,4.19599462 10.983614,4.19599462 C11.4583354,4.19599462 11.8416953,3.81442615 11.8416953,3.33791341 C11.8399039,2.86140067 11.4583354,2.4798322 10.983614,2.4798322 L10.983614,2.4798322 Z" id="形状"></path>
                        <path d="M14.3209946,7.16076373 C14.3209946,6.17191023 14.3299516,5.19201373 14.2744182,4.20495163 C14.2188847,3.05845481 13.9573402,2.04093889 13.1189644,1.20256309 C12.2787972,0.362395895 11.2630726,0.102642711 10.1165758,0.0471092711 C9.12772233,-0.00842416839 8.14782583,0.000532837976 7.16076373,0.000532837976 C6.17191023,0.000532837976 5.19201373,-0.00842416839 4.20495163,0.0471092711 C3.05845481,0.102642711 2.04093889,0.364187297 1.20256309,1.20256309 C0.362395895,2.04273029 0.102642711,3.05845481 0.0471092711,4.20495163 C-0.00842416839,5.19380513 0.000532837976,6.17370163 0.000532837976,7.16076373 C0.000532837976,8.14782583 -0.00842416839,9.12951373 0.0471092711,10.1165758 C0.102642711,11.2630726 0.364187297,12.2805886 1.20256309,13.1189644 C2.04273029,13.9591316 3.05845481,14.2188847 4.20495163,14.2744182 C5.19380513,14.3299516 6.17370163,14.3209946 7.16076373,14.3209946 C8.14961723,14.3209946 9.12951373,14.3299516 10.1165758,14.2744182 C11.2630726,14.2188847 12.2805886,13.9573402 13.1189644,13.1189644 C13.9591316,12.2787972 14.2188847,11.2630726 14.2744182,10.1165758 C14.331743,9.12951373 14.3209946,8.14961723 14.3209946,7.16076373 Z M12.7445615,11.3848879 C12.6137892,11.710923 12.4561459,11.9545535 12.2035583,12.2053497 C11.9509707,12.4579373 11.7091316,12.6155806 11.3830965,12.7463529 C10.4408195,13.1207558 8.20335927,13.0365599 7.15897233,13.0365599 C6.11458539,13.0365599 3.87533379,13.1207558 2.93305672,12.7481443 C2.60702169,12.617372 2.36339112,12.4597287 2.11259494,12.2071411 C1.86000736,11.9545535 1.70236405,11.7127144 1.57159176,11.3866793 C1.19898029,10.4426109 1.28317615,8.20515067 1.28317615,7.16076373 C1.28317615,6.11637679 1.19898029,3.87712519 1.57159176,2.93484812 C1.70236405,2.60881309 1.86000736,2.36518252 2.11259494,2.11438634 C2.36518252,1.86359016 2.60702169,1.70415545 2.93305672,1.57338316 C3.87533379,1.20077169 6.11458539,1.28496755 7.15897233,1.28496755 C8.20335927,1.28496755 10.4426109,1.20077169 11.3848879,1.57338316 C11.710923,1.70415545 11.9545535,1.86179876 12.2053497,2.11438634 C12.4579373,2.36697392 12.6155806,2.60881309 12.7463529,2.93484812 C13.1189644,3.87712519 13.0347685,6.11637679 13.0347685,7.16076373 C13.0347685,8.20515067 13.1189644,10.4426109 12.7445615,11.3848879 Z" id="形状"></path>
                    </g>
                </g>
            </g>
        </g>
    </g>
</svg>