<?xml version="1.0" encoding="UTF-8"?>
<svg width="32px" height="32px" viewBox="0 0 32 32" version="1.1" xmlns="http://www.w3.org/2000/svg" xmlns:xlink="http://www.w3.org/1999/xlink">
    <title>抖音</title>
    <g id="页面-1" stroke="none" stroke-width="1" fill="none" fill-rule="evenodd">
        <g id="落地页" transform="translate(-16, -417)">
            <g id="抖音" transform="translate(16, 417)">
                <circle id="椭圆形" fill="#111111" cx="16" cy="16" r="16"></circle>
                <g id="编组-17" transform="translate(7.5789, 5.8947)" fill-rule="nonzero">
                    <path d="M0.983808,14.390016 C0.987617198,10.9953885 3.73855649,8.2444492 7.133184,8.24064 L7.133184,11.930112 C5.77540123,11.9316638 4.67508783,13.0319772 4.673536,14.38976 C4.673536,15.598336 5.327104,16.89856 6.76224,16.89856 C6.857728,16.89856 9.101056,16.876544 9.101056,14.968576 L9.101056,0.984064 L13.032704,0.984064 C13.0370731,2.8197571 14.5250077,4.30631817 16.360704,4.308992 L16.357376,7.991808 C15.1020292,8.00144676 13.8683185,7.66485134 12.791808,7.019008 L12.790272,14.968576 C12.790272,18.618624 9.684224,20.5880322 6.761728,20.5880322 C3.468032,20.5888 0.983808,17.92384 0.983808,14.390016 L0.983808,14.390016 Z" id="路径" fill="#FF4040"></path>
                    <path d="M0,13.405952 C0.00380919849,10.0113245 2.75474849,7.2603852 6.149376,7.256576 L6.149376,10.946048 C4.79159323,10.9475998 3.69127983,12.0479132 3.689728,13.405696 C3.689728,14.614272 4.343296,15.914496 5.778432,15.914496 C5.87392,15.914496 8.117248,15.89248 8.117248,13.984512 L8.117248,0 L12.048896,0 C12.0532651,1.8356931 13.5411997,3.32225417 15.376896,3.324928 L15.373568,7.007744 C14.1182212,7.01738276 12.8845105,6.68078734 11.808,6.034944 L11.806464,13.984512 C11.806464,17.63456 8.700416,19.6039682 5.77792,19.6039682 C2.484224,19.604736 0,16.939776 0,13.405952 L0,13.405952 Z" id="路径" fill="#00F5FF"></path>
                    <path d="M6.149632,8.314624 C2.179072,8.818432 -0.961536,13.882624 2.296832,18.43968 C5.30688,20.901632 11.63904,19.469824 11.8144,14.143232 L11.810048,6.039552 C12.8929637,6.67520103 14.1265873,7.00867016 15.382272,7.005184 L15.382272,4.155648 C14.6439951,3.90630193 14.005729,3.42567226 13.562112,2.785024 C12.9111488,2.35682463 12.4280616,1.71692846 12.19456,0.973568 L9.102848,0.973568 L9.1008,15.009024 C9.097984,16.970752 5.82656,17.669376 4.996096,15.765504 C2.916352,14.7712 3.386624,10.992384 6.153984,10.951168 L6.149632,8.314624 Z" id="路径" fill="#FFFFFF"></path>
                </g>
            </g>
        </g>
    </g>
</svg>