<?xml version="1.0" encoding="UTF-8"?>
<svg width="24px" height="24px" viewBox="0 0 24 24" version="1.1" xmlns="http://www.w3.org/2000/svg" xmlns:xlink="http://www.w3.org/1999/xlink">
    <title>编组 33@3x</title>
    <g id="页面-1" stroke="none" stroke-width="1" fill="none" fill-rule="evenodd">
        <g id="落地页" transform="translate(-76, -2128)">
            <g id="编组-12" transform="translate(0, 2061)">
                <g id="编组-33" transform="translate(76, 67)">
                    <circle id="椭圆形备份-6" fill="#111827" cx="12" cy="12" r="12"></circle>
                    <g id="whatsapp" transform="translate(4.8158, 4.8)" fill="#FFFFFF" fill-rule="nonzero">
                        <path d="M10.3792618,8.5637429 C10.2050785,8.47425426 9.33735836,8.04918324 9.17595921,7.99165483 C9.01456007,7.9309304 8.89630723,7.90216619 8.7796524,8.08114347 C8.66139955,8.25852273 8.32581717,8.65323153 8.22034842,8.77308239 C8.11807569,8.89133523 8.01420495,8.90571733 7.84002171,8.8178267 C6.80451035,8.30007102 6.12535552,7.89417614 5.44300467,6.72283381 C5.26242938,6.41122159 5.62357995,6.43359375 5.96076035,5.76083097 C6.01828876,5.64257813 5.98952455,5.54190341 5.94478024,5.45241477 C5.90003592,5.36292614 5.54847342,4.49680398 5.40145637,4.14364347 C5.25923336,3.80007102 5.11221632,3.84801136 5.00514955,3.84161932 C4.90287683,3.83522727 4.786222,3.83522727 4.66796916,3.83522727 C4.54971632,3.83522727 4.35955296,3.87997159 4.19815382,4.05415483 C4.03675467,4.23153409 3.58132143,4.65820313 3.58132143,5.52432528 C3.58132143,6.39044744 4.21253592,7.22940341 4.29882853,7.34765625 C4.38831717,7.46590909 5.54048336,9.24289773 7.30948194,10.0083452 C8.4280899,10.4909446 8.86594501,10.5324929 9.42524899,10.4493963 C9.76562541,10.3982599 10.4671524,10.0243253 10.6125714,9.61044034 C10.7579905,9.19815341 10.7579905,8.8449929 10.7148442,8.77148438 C10.6716979,8.69318182 10.553445,8.6484375 10.3792618,8.5637429 Z" id="路径"></path>
                        <path d="M13.7622518,4.38494318 C13.4011013,3.52681108 12.8833456,2.7565696 12.2233669,2.0949929 C11.5633882,1.4350142 10.7931467,0.915660511 9.9334166,0.556107955 C9.05451035,0.18696733 8.12127171,0 7.15926887,0 L7.12730865,0 C6.15891376,0.00479403409 5.22088109,0.196555398 4.33877882,0.57368608 C3.48703876,0.93803267 2.72318933,1.45578835 2.06960268,2.11576705 C1.41601603,2.77574574 0.903054384,3.54279119 0.548295861,4.39772727 C0.180753248,5.28302557 -0.00461607038,6.22425426 8.7304199e-05,7.19264915 C0.0049719978,8.30166903 0.270241884,9.40269886 0.767223418,10.3870739 L0.767223418,12.8160511 C0.767223418,13.221946 1.09641376,13.5511364 1.50230865,13.5511364 L3.93288393,13.5511364 C4.91725893,14.0481179 6.01828876,14.3133878 7.12730865,14.3181818 L7.16086688,14.3181818 C8.11807569,14.3181818 9.04652029,14.1328125 9.92063251,13.7700639 C10.7755686,13.4137074 11.5442121,12.9023437 12.2025927,12.2487571 C12.8625714,11.5951705 13.3819251,10.831321 13.7446737,9.97958097 C14.1218044,9.09747869 14.3135657,8.15944602 14.3184489,7.19105114 C14.3231538,6.21786222 14.1345885,5.2734375 13.7622518,4.38494318 L13.7622518,4.38494318 Z M11.3476567,11.384233 C10.2274507,12.4932528 8.74130012,13.1036932 7.15926887,13.1036932 L7.13210268,13.1036932 C6.16850183,13.0988991 5.21129302,12.8591974 4.36594501,12.4085582 L4.23171205,12.3366477 L1.98171205,12.3366477 L1.98171205,10.0866477 L1.90980154,9.95241477 C1.45916234,9.10706676 1.21946063,8.14985795 1.21461678,7.1862571 C1.20827455,5.59303977 1.81711688,4.09730114 2.93412683,2.97070313 C4.04953876,1.84410511 5.54048336,1.22088068 7.13370069,1.21448864 L7.16086688,1.21448864 C7.95987257,1.21448864 8.73490808,1.36949574 9.46519927,1.67631392 C10.1779123,1.97514205 10.8171169,2.4050071 11.3668328,2.95472301 C11.9149507,3.50284091 12.3464138,4.14364347 12.6452419,4.85635653 C12.9552561,5.59463778 13.1102632,6.37766335 13.1071156,7.1862571 C13.0974791,8.77787642 12.4726567,10.268821 11.3476567,11.384233 Z" id="形状"></path>
                    </g>
                </g>
            </g>
        </g>
    </g>
</svg>