<?xml version="1.0" encoding="UTF-8"?>
<svg width="142px" height="36px" viewBox="0 0 142 36" version="1.1" xmlns="http://www.w3.org/2000/svg" xmlns:xlink="http://www.w3.org/1999/xlink">
    <title>Apple@2x</title>
    <g id="页面-1" stroke="none" stroke-width="1" fill="none" fill-rule="evenodd">
        <g id="落地页" transform="translate(-217, -2123)">
            <g id="编组-12" transform="translate(0, 2061)">
                <g id="Apple" transform="translate(217, 62)">
                    <rect id="矩形" fill="#FFFFFF" x="0" y="0" width="142" height="36" rx="18"></rect>
                    <g id="编组-25" transform="translate(36, 9)" fill="#040104" fill-rule="nonzero">
                        <path d="M11.0962167,8.70232681 C11.0776689,6.63499776 12.7853487,5.62923851 12.8634388,5.58239554 C11.8963348,4.16936422 10.397304,3.97625532 9.87050159,3.96088236 C8.61147838,3.82809563 7.39027487,4.71582842 6.74889935,4.71582842 C6.09476872,4.71582842 5.10716738,3.97369316 4.04270124,3.99552722 C2.67294815,4.01669289 1.39153388,4.81140813 0.688777911,6.04553383 C-0.761627528,8.56185359 0.320105346,12.2596634 1.70968733,14.2936286 C2.40475682,15.2897519 3.21701729,16.4020079 4.28020235,16.3628515 C5.32027227,16.3199074 5.70882943,15.6983608 6.9639537,15.6983608 C8.20760396,15.6983608 8.57243328,16.3628515 9.65672832,16.3378425 C10.7729947,16.3199074 11.4758063,15.3372076 12.146591,14.3321167 C12.9498839,13.1903959 13.2724376,12.0659418 13.2852484,12.0082375 C13.2590141,11.9992142 11.1173824,11.1801585 11.0962167,8.70232681 Z" id="路径"></path>
                        <path d="M9.04944066,2.62276637 C9.60888276,1.9217148 9.99164721,0.967911694 9.88537326,0 C9.07567496,0.0359203713 8.06312041,0.56124675 7.48000618,1.24693093 C6.9641208,1.85115514 6.50326617,2.84149687 6.62235092,3.77284208 C7.53186207,3.84085073 8.46571374,3.31299004 9.04944066,2.62276637 Z" id="路径"></path>
                        <path d="M26.1484063,16.2200389 L24.694826,16.2200389 L23.8986069,13.7126867 L21.1309169,13.7126867 L20.3724618,16.2200389 L18.9572583,16.2200389 L21.6993266,7.68392385 L23.3929145,7.68392385 L26.1484063,16.2200389 Z M23.6585436,12.6607528 L22.9384652,10.4317849 C22.8623245,10.2040868 22.7195676,9.66787129 22.5090249,8.82375092 L22.4834033,8.82375092 C22.3995761,9.18679787 22.2645057,9.72301343 22.0788605,10.4317849 L21.3715929,12.6607528 L23.6585436,12.6607528 Z" id="形状"></path>
                        <path d="M33.1986912,13.0667995 C33.1986912,14.113609 32.9164637,14.9410197 32.3518973,15.5484744 C31.8462606,16.0892016 31.2183642,16.359231 30.468821,16.359231 C29.6597911,16.359231 29.0786263,16.0680359 28.7246583,15.4855901 L28.6990367,15.4855901 L28.6990367,18.7280038 L27.3344079,18.7280038 L27.3344079,12.0911735 C27.3344079,11.4330882 27.3171412,10.7576248 27.2838888,10.0648947 L28.4839824,10.0648947 L28.5601788,11.0405207 L28.5857447,11.0405207 C29.0408623,10.3054593 29.7314759,9.93856908 30.6583094,9.93856908 C31.3828438,9.93856908 31.9877364,10.2252525 32.4715947,10.7993435 C32.9567899,11.3740472 33.1986912,12.1296616 33.1986912,13.0667995 Z M31.8084966,13.1168173 C31.8084966,12.5177175 31.6740945,12.0238332 31.4039537,11.635109 C31.1089154,11.2297307 30.7126718,11.0270415 30.2160026,11.0270415 C29.8793571,11.0270415 29.5734017,11.1399437 29.3000861,11.3625174 C29.026102,11.5869849 28.8469179,11.8801295 28.763035,12.2431764 C28.7208151,12.4125018 28.6997051,12.5510812 28.6997051,12.6601401 L28.6997051,13.6863967 C28.6997051,14.1341063 28.8366693,14.5119135 29.1105976,14.820431 C29.3845817,15.1289485 29.7404434,15.2829009 30.1782386,15.2829009 C30.6922302,15.2829009 31.0922614,15.084055 31.3783878,14.6876443 C31.665127,14.2906209 31.8084966,13.7672161 31.8084966,13.1168173 Z" id="形状"></path>
                        <path d="M40.2649061,13.0667995 C40.2649061,14.113609 39.9826229,14.9410197 39.4174438,15.5484744 C38.9124198,16.0892016 38.2845234,16.359231 37.5350359,16.359231 C36.7259503,16.359231 36.1447855,16.0680359 35.7914859,15.4855901 L35.7658643,15.4855901 L35.7658643,18.7280038 L34.4012355,18.7280038 L34.4012355,12.0911735 C34.4012355,11.4330882 34.3839688,10.7576248 34.3507164,10.0648947 L35.5508099,10.0648947 L35.6270064,11.0405207 L35.6525723,11.0405207 C36.1070215,10.3054593 36.7976908,9.93856908 37.725137,9.93856908 C38.4490587,9.93856908 39.0538956,10.2252525 39.5390907,10.7993435 C40.0223364,11.3740472 40.2649061,12.1296616 40.2649061,13.0667995 Z M38.8746557,13.1168173 C38.8746557,12.5177175 38.739641,12.0238332 38.4695002,11.635109 C38.1744619,11.2297307 37.7794994,11.0270415 37.2822175,11.0270415 C36.9449036,11.0270415 36.6395609,11.1399437 36.3656326,11.3625174 C36.0916485,11.5869849 35.9130771,11.8801295 35.8292499,12.2431764 C35.7876427,12.4125018 35.7658643,12.5510812 35.7658643,12.6601401 L35.7658643,13.6863967 C35.7658643,14.1341063 35.9028285,14.5119135 36.1755314,14.820431 C36.4494598,15.1283359 36.8053215,15.2829009 37.2444535,15.2829009 C37.7583894,15.2829009 38.1584206,15.084055 38.444547,14.6876443 C38.7312862,14.2906209 38.8746557,13.7672161 38.8746557,13.1168173 Z" id="形状"></path>
                        <path d="M48.1620407,13.8262015 C48.1620407,14.5522954 47.9102806,15.1430404 47.4052566,15.5991049 C46.8503261,16.0975008 46.0777791,16.3463645 45.0850534,16.3463645 C44.1684685,16.3463645 43.4336855,16.1693527 42.8774183,15.8146049 L43.1936223,14.6747778 C43.7927221,15.0378248 44.4500833,15.2200166 45.1663185,15.2200166 C45.6803101,15.2200166 46.0803413,15.1032712 46.3677488,14.8710616 C46.6538195,14.6389076 46.7965764,14.3271595 46.7965764,13.9384353 C46.7965764,13.592098 46.6787728,13.3002346 46.4426084,13.0635133 C46.2077252,12.8268477 45.8153248,12.6068361 45.2674681,12.4035342 C43.7761238,11.8460973 43.0310922,11.0296037 43.0310922,9.95583581 C43.0310922,9.25408243 43.2922097,8.67876607 43.8151689,8.23105644 C44.3361786,7.78267841 45.0312481,7.5588236 45.9004888,7.5588236 C46.6755979,7.5588236 47.3194799,7.69417249 47.8334715,7.96420189 L47.4923143,9.07902005 C47.0122992,8.81728982 46.4695111,8.68645256 45.8620564,8.68645256 C45.3820412,8.68645256 45.0069633,8.80509171 44.7381035,9.04114464 C44.5109068,9.25218866 44.3969463,9.50940725 44.3969463,9.81408152 C44.3969463,10.1514512 44.5268924,10.4305038 44.7880657,10.649847 C45.0152624,10.8525362 45.4281044,11.0719351 46.0272043,11.3086007 C46.7600935,11.6043074 47.2983699,11.9500319 47.6446514,12.3464426 C47.9896519,12.7415166 48.1620407,13.2360692 48.1620407,13.8262015 Z" id="路径"></path>
                        <path d="M52.6753415,11.0910399 L51.1709079,11.0910399 L51.1709079,14.0794655 C51.1709079,14.8395358 51.4360358,15.2192368 51.9674055,15.2192368 C52.2113677,15.2192368 52.4135556,15.1980712 52.5734121,15.1557398 L52.6112875,16.1942502 C52.3422607,16.2949542 51.9885712,16.3455847 51.550219,16.3455847 C51.0110514,16.3455847 50.5899659,16.180771 50.2858486,15.8517005 C49.9834024,15.5220173 49.8307867,14.969092 49.8307867,14.1923119 L49.8307867,11.0897588 L48.9345877,11.0897588 L48.9345877,10.0634465 L49.8307867,10.0634465 L49.8307867,8.93648597 L51.1709079,8.53110767 L51.1709079,10.0634465 L52.6753415,10.0634465 L52.6753415,11.0910399 Z" id="路径"></path>
                        <path d="M59.4633949,13.091697 C59.4633949,14.0378025 59.1932541,14.8145826 58.6540865,15.4219817 C58.0887403,16.0473716 57.3390299,16.3591196 56.4038415,16.3591196 C55.5026295,16.3591196 54.7852247,16.0595697 54.249956,15.4604698 C53.7146873,14.8613699 53.4473315,14.1051428 53.4473315,13.1936821 C53.4473315,12.2398902 53.7224852,11.4585984 54.2750206,10.8511994 C54.825885,10.2431319 55.5694685,9.93907037 56.5046569,9.93907037 C57.4058689,9.93907037 58.1310716,10.2386203 58.6785941,10.8383886 C59.202166,11.420166 59.4633949,12.1712689 59.4633949,13.091697 Z M58.0475229,13.1359778 C58.0475229,12.5682923 57.9266558,12.0814261 57.6810226,11.6754352 C57.3952861,11.1841131 56.9858974,10.9390926 56.4561987,10.9390926 C55.9075622,10.9390926 55.4909327,11.1847258 55.2046391,11.6754352 C54.9595629,12.0820945 54.8386958,12.5766471 54.8386958,13.1615994 C54.8386958,13.729285 54.9595629,14.2160954 55.2046391,14.6214737 C55.4998445,15.1128515 55.9120181,15.357872 56.4439449,15.357872 C56.9652888,15.357872 57.3741204,15.1077272 57.6693258,14.6086629 C57.9205289,14.1949298 58.0475229,13.702995 58.0475229,13.1359778 Z" id="形状"></path>
                        <path d="M63.8959319,11.2675504 C63.7605831,11.2425415 63.6168793,11.2297307 63.4659346,11.2297307 C62.9858081,11.2297307 62.6142949,11.4112542 62.3530659,11.7749695 C62.1263705,12.0956851 62.0121872,12.5010634 62.0121872,12.990436 L62.0121872,16.2200389 L60.6481155,16.2200389 L60.6609263,12.0032803 C60.6609263,11.2938961 60.6436595,10.6479532 60.6096831,10.0655631 L61.7983026,10.0655631 L61.8484318,11.2432099 L61.8863072,11.2432099 C62.030011,10.8384443 62.2572634,10.5126044 62.5686216,10.2682523 C62.8721819,10.0482407 63.2008068,9.93856908 63.5544963,9.93856908 C63.6809333,9.93856908 63.7945595,9.94753664 63.8959319,9.96357799 L63.8959319,11.2675504 Z" id="路径"></path>
                        <path d="M70,12.8511325 C70,13.096153 69.9838473,13.3026854 69.9498708,13.4713423 L65.8559845,13.4713423 C65.8721372,14.0794655 66.0698691,14.5444975 66.4502942,14.8652131 C66.7950719,15.1518966 67.2412219,15.2956004 67.7893014,15.2956004 C68.395308,15.2956004 68.9484004,15.1987396 69.4457936,15.0043496 L69.6591213,15.9536856 C69.0781793,16.2076737 68.391966,16.334055 67.6004813,16.334055 C66.6480261,16.334055 65.8999868,16.0531086 65.3563632,15.4918841 C64.8132967,14.9306039 64.5414849,14.176939 64.5414849,13.2315019 C64.5414849,12.3033315 64.794359,11.5303946 65.3006641,10.914028 C65.8303629,10.255887 66.5466537,9.92687226 67.4478657,9.92687226 C68.3329249,9.92687226 69.0029855,10.255887 69.4586044,10.914028 C69.8189778,11.4367644 70,12.0833199 70,12.8511325 Z M68.6988682,12.4963847 C68.7077801,12.0910064 68.6186615,11.7408259 68.4337404,11.4451192 C68.197576,11.0647499 67.8344177,10.8748715 67.3459363,10.8748715 C66.8997862,10.8748715 66.5371849,11.0602382 66.2598032,11.4322527 C66.0325507,11.7279594 65.8977588,12.0827072 65.8559845,12.495772 L68.6988682,12.4963847 Z" id="形状"></path>
                        <path d="M23.2085503,2.43272093 C23.2085503,3.18766699 22.9825789,3.75596525 22.5313603,4.13761571 C22.113394,4.48974563 21.5194184,4.66614479 20.7500463,4.66614479 C20.3685629,4.66614479 20.042166,4.64949075 19.7688503,4.61612697 L19.7688503,0.491104831 C20.1253248,0.433378249 20.5093703,0.403874418 20.9241618,0.403874418 C21.657051,0.403874418 22.2094193,0.563586114 22.5819351,0.883020645 C22.999233,1.24414041 23.2085503,1.76048809 23.2085503,2.43272093 Z M22.5012827,2.45132444 C22.5012827,1.96189615 22.372005,1.58666223 22.113394,1.32495985 C21.8547829,1.06389801 21.4771985,0.933049607 20.9798609,0.933049607 C20.7685941,0.933049607 20.5887416,0.947158197 20.439635,0.976667598 L20.439635,4.1126068 C20.5221811,4.1254176 20.6732372,4.13121031 20.8928031,4.13121031 C21.4061264,4.13121031 21.8023143,3.98817494 22.081367,3.70210419 C22.3604753,3.41603343 22.5012827,2.99906972 22.5012827,2.45132444 Z" id="形状"></path>
                        <path d="M26.9580489,3.09208727 C26.9580489,3.55711934 26.8255407,3.93815711 26.5605242,4.23703866 C26.2827526,4.54427509 25.9146927,4.6975591 25.4551749,4.6975591 C25.0121997,4.6975591 24.6595685,4.55068049 24.3965014,4.25564218 C24.1340471,3.96121655 24.00282,3.58981473 24.00282,3.1421051 C24.00282,2.67389818 24.1378904,2.28968555 24.4092565,1.99140555 C24.6806784,1.69314226 25.0455078,1.54369035 25.5050813,1.54369035 C25.9480008,1.54369035 26.3038626,1.6905801 26.573335,1.98499458 C26.8293839,2.27108204 26.9580489,2.6405344 26.9580489,3.09208727 Z M26.2622553,3.11392133 C26.2622553,2.83486867 26.2021003,2.5956409 26.0824028,2.3961266 C25.9415954,2.15494935 25.7412456,2.03438301 25.4807408,2.03438301 C25.2112684,2.03438301 25.0064627,2.15494935 24.8656552,2.3961266 C24.7452894,2.5956409 24.6858027,2.83871191 24.6858027,3.12606375 C24.6858027,3.4051164 24.7459578,3.64434418 24.8656552,3.84385848 C25.0109186,4.08503573 25.2132178,4.20562435 25.4743354,4.20562435 C25.7303843,4.20562435 25.9313468,4.08308626 26.0759974,3.83745308 C26.2002065,3.63409554 26.2622553,3.39291829 26.2622553,3.11392133 Z" id="形状"></path>
                        <path d="M31.9884048,1.60515434 L31.0443044,4.62882637 L30.4298316,4.62882637 L30.038768,3.31583069 C29.9395678,2.98809699 29.8589155,2.66220136 29.7961983,2.33892359 L29.7840001,2.33892359 C29.7257946,2.67122462 29.6451422,2.99639616 29.5414304,3.31583069 L29.1260263,4.62882637 L28.5045353,4.62882637 L27.6167469,1.60515434 L28.3060793,1.60515434 L28.6472365,3.04257074 C28.7298383,3.38255826 28.7976799,3.70644872 28.8520979,4.01307245 L28.8642404,4.01307245 C28.9141468,3.76036548 28.9967486,3.43836879 29.1132155,3.04903184 L29.5414304,1.60580045 L30.0880617,1.60580045 L30.4983415,3.01823022 C30.5975417,3.36267366 30.678194,3.69430631 30.7402986,4.01374084 L30.7588464,4.01374084 C30.8042969,3.70260548 30.8727511,3.37102853 30.9636521,3.01823022 L31.3297625,1.60580045 L31.9884048,1.60580045 L31.9884048,1.60515434 Z" id="路径"></path>
                        <path d="M35.4636965,4.62899347 L34.7929118,4.62899347 L34.7929118,2.89714031 C34.7929118,2.36343121 34.5906683,2.09662122 34.1848444,2.09662122 C33.9857757,2.09662122 33.8251394,2.16976532 33.7003176,2.31664394 C33.576777,2.46352255 33.5140597,2.63669116 33.5140597,2.83492437 L33.5140597,4.62832508 L32.8432751,4.62832508 L32.8432751,2.46931526 C32.8432751,2.20374179 32.8349759,1.91573828 32.8189902,1.60400694 L33.4084542,1.60400694 L33.4398128,2.07673663 L33.4584163,2.07673663 C33.5365065,1.92985244 33.6529734,1.80862328 33.8059232,1.71176805 C33.9877252,1.59887705 34.1912498,1.54179101 34.4139906,1.54179101 C34.6956611,1.54179101 34.929876,1.63287023 35.1161339,1.81567479 C35.3478423,2.03953518 35.4636965,2.37373555 35.4636965,2.81760194 L35.4636965,4.62899347 Z" id="路径"></path>
                        <polygon id="路径" points="37.3140774 4.62893777 36.6439054 4.62893777 36.6439054 0.217844882 37.3140774 0.217844882"></polygon>
                        <path d="M41.2635916,3.09208727 C41.2635916,3.55711934 41.1310833,3.93815711 40.8660669,4.23703866 C40.5882953,4.54427509 40.2196227,4.6975591 39.7607176,4.6975591 C39.3171297,4.6975591 38.9644427,4.55068049 38.7019884,4.25564218 C38.4395898,3.96121655 38.3083627,3.58981473 38.3083627,3.1421051 C38.3083627,2.67389818 38.4434331,2.28968555 38.7147992,1.99140555 C38.9862211,1.69314226 39.3510504,1.54369035 39.8099556,1.54369035 C40.2535435,1.54369035 40.6087926,1.6905801 40.8788777,1.98499458 C41.1349266,2.27108204 41.2635916,2.6405344 41.2635916,3.09208727 Z M40.5671853,3.11392133 C40.5671853,2.83486867 40.5070303,2.5956409 40.3873328,2.3961266 C40.2471381,2.15494935 40.0461756,2.03438301 39.7862835,2.03438301 C39.5161984,2.03438301 39.311337,2.15494935 39.1711979,2.3961266 C39.0508321,2.5956409 38.9913454,2.83871191 38.9913454,3.12606375 C38.9913454,3.4051164 39.0515005,3.64434418 39.1711979,3.84385848 C39.3164613,4.08503573 39.5187605,4.20562435 39.7798781,4.20562435 C40.035927,4.20562435 40.2362768,4.08308626 40.3809274,3.83745308 C40.5057492,3.63409554 40.5671853,3.39291829 40.5671853,3.11392133 Z" id="形状"></path>
                        <path d="M44.5102941,4.62893777 L43.9080194,4.62893777 L43.8580572,4.28065109 L43.8395094,4.28065109 C43.6334226,4.55842267 43.3396097,4.6975591 42.9581263,4.6975591 C42.6733367,4.6975591 42.4429093,4.60587833 42.2694622,4.42368646 C42.1120008,4.25820434 42.0332422,4.05228464 42.0332422,3.80793254 C42.0332422,3.43848019 42.1868604,3.15686537 42.4960463,2.9618627 C42.8045081,2.76691573 43.2385158,2.67133602 43.7972895,2.67579195 L43.7972895,2.61936873 C43.7972895,2.22106422 43.5886405,2.02219604 43.1706742,2.02219604 C42.8730181,2.02219604 42.6106194,2.09724505 42.3840354,2.24607313 L42.2476839,1.80475219 C42.5280176,1.63092633 42.8742991,1.54369035 43.2826852,1.54369035 C44.0712178,1.54369035 44.4667931,1.96062064 44.4667931,2.7944868 L44.4667931,3.90796818 C44.4667931,4.21008028 44.4814976,4.45064484 44.5102941,4.62893777 Z M43.8139435,3.58981473 L43.8139435,3.12350159 C43.0739805,3.11069078 42.7040269,3.31404832 42.7040269,3.73290581 C42.7040269,3.89064575 42.7463025,4.00867222 42.8326919,4.08759789 C42.9190812,4.16646786 43.0291984,4.20562435 43.1604256,4.20562435 C43.3076384,4.20562435 43.4452153,4.15878138 43.5707054,4.06576383 C43.6968082,3.97213358 43.77423,3.85349443 43.8030265,3.7078412 C43.8101003,3.6751458 43.8139435,3.63537662 43.8139435,3.58981473 Z" id="形状"></path>
                        <path d="M48.3207832,4.62893777 L47.7255266,4.62893777 L47.694168,4.14335272 L47.6755644,4.14335272 C47.4854633,4.51286077 47.1616285,4.6975591 46.7065109,4.6975591 C46.3429627,4.6975591 46.0402379,4.55452373 45.8001746,4.26845298 C45.5601671,3.98238223 45.4404696,3.6109804 45.4404696,3.1549159 C45.4404696,2.66554331 45.5704157,2.26913257 45.8315332,1.96637436 C46.0844073,1.68414685 46.3941502,1.5430331 46.7628227,1.5430331 C47.1680339,1.5430331 47.4515425,1.6796575 47.6128472,1.95354685 L47.625658,1.95354685 L47.625658,0.217844882 L48.2968326,0.217844882 L48.2968326,3.81433794 C48.2968326,4.10876356 48.3046305,4.38007404 48.3207832,4.62893777 Z M47.625658,3.3537618 L47.625658,2.84962895 C47.625658,2.7624041 47.6192526,2.6918333 47.6071102,2.63797224 C47.5693462,2.47633335 47.4880255,2.34031607 47.3645405,2.23064447 C47.2397187,2.12095617 47.0892754,2.06579732 46.9158283,2.06579732 C46.6655721,2.06579732 46.4696782,2.16519799 46.3256959,2.36471229 C46.1829391,2.56417089 46.1106416,2.81882732 46.1106416,3.12990699 C46.1106416,3.42884424 46.1790958,3.67130256 46.3167284,3.85795036 C46.4619917,4.05679627 46.6578856,4.15621922 46.9030175,4.15621922 C47.1231961,4.15621922 47.2992054,4.07345031 47.4329947,3.90735549 C47.5622724,3.75401578 47.625658,3.56931745 47.625658,3.3537618 Z" id="形状"></path>
                        <path d="M54.057237,3.09208727 C54.057237,3.55711934 53.924673,3.93815711 53.6595452,4.23703866 C53.3816065,4.54427509 53.0145492,4.6975591 52.5539174,4.6975591 C52.1116662,4.6975591 51.7590907,4.55068049 51.4956338,4.25564218 C51.2327339,3.96121655 51.101841,3.58981473 51.101841,3.1421051 C51.101841,2.67389818 51.2366329,2.28968555 51.5084446,1.99140555 C51.7796994,1.69314226 52.1445287,1.54369035 52.6046036,1.54369035 C53.0468547,1.54369035 53.4033292,1.6905801 53.672356,1.98499458 C53.928572,2.27108204 54.057237,2.6405344 54.057237,3.09208727 Z M53.3621118,3.11392133 C53.3621118,2.83486867 53.3019567,2.5956409 53.1822036,2.3961266 C53.0407278,2.15494935 52.8407679,2.03438301 52.579539,2.03438301 C52.3110691,2.03438301 52.1060963,2.15494935 51.9646205,2.3961266 C51.8443104,2.5956409 51.7847123,2.83871191 51.7847123,3.12606375 C51.7847123,3.4051164 51.8448674,3.64434418 51.9646205,3.84385848 C52.1099953,4.08503573 52.3121831,4.20562435 52.5734121,4.20562435 C52.8290711,4.20562435 53.030702,4.08308626 53.1755197,3.83745308 C53.2991718,3.63409554 53.3621118,3.39291829 53.3621118,3.11392133 Z" id="形状"></path>
                        <path d="M57.6665408,4.62899347 L56.9964803,4.62899347 L56.9964803,2.89714031 C56.9964803,2.36343121 56.7942924,2.09662122 56.3876887,2.09662122 C56.1888428,2.09662122 56.0278723,2.16976532 55.9036633,2.31664394 C55.7794542,2.46352255 55.7176282,2.63669116 55.7176282,2.83492437 L55.7176282,4.62832508 L55.0458966,4.62832508 L55.0458966,2.46931526 C55.0458966,2.20374179 55.0386557,1.91573828 55.022503,1.60400694 L55.6112428,1.60400694 L55.6424343,2.07673663 L55.661372,2.07673663 C55.7399078,1.92985244 55.856319,1.80862328 56.0089346,1.71176805 C56.1910708,1.59887705 56.3943726,1.54179101 56.6177262,1.54179101 C56.8984498,1.54179101 57.1329431,1.63287023 57.3189782,1.81567479 C57.5512436,2.03953518 57.6665408,2.37373555 57.6665408,2.81760194 L57.6665408,4.62899347 Z" id="路径"></path>
                        <path d="M62.1776137,2.10862995 L61.4390432,2.10862995 L61.4390432,3.57750522 C61.4390432,3.95080082 61.5699361,4.13744861 61.8300511,4.13744861 C61.9503612,4.13744861 62.0500627,4.12719997 62.1291554,4.1060343 L62.1464222,4.61595987 C62.0138582,4.66597769 61.8395199,4.6909866 61.6250783,4.6909866 C61.3605074,4.6909866 61.1544206,4.61016716 61.0051469,4.44852827 C60.8553162,4.28688939 60.7812364,4.01496622 60.7812364,3.63331576 L60.7812364,2.10862995 L60.3400993,2.10862995 L60.3400993,1.60510978 L60.7812364,1.60510978 L60.7812364,1.05092011 L61.4384862,0.852074206 L61.4384862,1.60446924 L62.1770567,1.60446924 L62.1776137,2.10862995 Z" id="路径"></path>
                        <path d="M65.7301044,4.62893777 L65.0589299,4.62893777 L65.0589299,2.90989541 C65.0589299,2.36788714 64.856185,2.09658223 64.4512523,2.09658223 C64.1404511,2.09658223 63.9276805,2.25375961 63.8112693,2.56801413 C63.7912176,2.6340733 63.7800777,2.71489274 63.7800777,2.80985976 L63.7800777,4.62826938 L63.1094602,4.62826938 L63.1094602,0.217844882 L63.7800777,0.217844882 L63.7800777,2.04013673 L63.7928885,2.04013673 C64.0039883,1.70852079 64.3064346,1.5430331 64.6991135,1.5430331 C64.9770521,1.5430331 65.2065326,1.63411789 65.3892257,1.81692245 C65.6164782,2.04462608 65.7301044,2.3833158 65.7301044,2.83102543 L65.7301044,4.62893777 Z" id="路径"></path>
                        <path d="M69.3928794,2.97411651 C69.3928794,3.09470513 69.3839676,3.19607756 69.3683718,3.27879077 L67.3565191,3.27879077 C67.365431,3.57772802 67.4612335,3.80542608 67.6478256,3.96322172 C67.8177079,4.10430763 68.0377195,4.17487843 68.3061893,4.17487843 C68.6036227,4.17487843 68.8754345,4.12742277 69.1199537,4.03184306 L69.2246681,4.49882459 C68.9389315,4.62325646 68.6019517,4.68547239 68.2120578,4.68547239 C67.7447421,4.68547239 67.3771278,4.54756133 67.1108859,4.27173922 C66.8429731,3.99591711 66.7104092,3.62579637 66.7104092,3.1614327 C66.7104092,2.70536819 66.8340612,2.3256672 67.0830364,2.02289784 C67.3431513,1.69962007 67.6946129,1.53798119 68.137978,1.53798119 C68.5718742,1.53798119 68.9016131,1.69962007 69.1244096,2.02289784 C69.3043178,2.27949261 69.3928794,2.59697767 69.3928794,2.97411651 Z M68.7528964,2.80033521 C68.7579093,2.60082092 68.713907,2.42893339 68.6231174,2.28394854 C68.5067062,2.09730632 68.329583,2.00365379 68.0895197,2.00365379 C67.8706221,2.00365379 67.6918279,2.09473859 67.555365,2.27754314 C67.4439668,2.42314068 67.3782418,2.59697767 67.3565191,2.80033521 L68.7528964,2.80033521 Z" id="形状"></path>
                    </g>
                </g>
            </g>
        </g>
    </g>
</svg>