<?xml version="1.0" encoding="UTF-8"?>
<svg width="168px" height="42px" viewBox="0 0 168 42" version="1.1" xmlns="http://www.w3.org/2000/svg" xmlns:xlink="http://www.w3.org/1999/xlink">
    <title>Apple@2x</title>
    <g id="页面-1" stroke="none" stroke-width="1" fill="none" fill-rule="evenodd">
        <g id="落地页" transform="translate(-12, -226)">
            <g id="Apple" transform="translate(12, 226)">
                <rect id="矩形" fill="#000000" x="0" y="0" width="168" height="42" rx="21"></rect>
                <g id="编组-9" transform="translate(43, 10)" fill="#FFFFFF" fill-rule="nonzero">
                    <path d="M12.8208988,10.2362893 C12.7994681,7.80455138 14.7725721,6.62150655 14.8627998,6.56640655 C13.745379,4.90429966 12.0133543,4.67715138 11.4046711,4.65906862 C9.94995825,4.50287552 8.5389434,5.54708931 7.79787904,5.54708931 C7.04207706,5.54708931 5.9009731,4.67413759 4.67105726,4.69982034 C3.08840379,4.7247169 1.60781963,5.6595169 0.795834485,7.11118241 C-0.880007099,10.0710548 0.369859237,14.420679 1.97542359,16.8131721 C2.77852755,17.9848824 3.71703746,19.2931962 4.9454731,19.2471376 C6.14720082,19.1966238 6.59615132,18.4655169 8.04635924,18.4655169 C9.48330973,18.4655169 9.90484439,19.2471376 11.1576711,19.2177203 C12.4474384,19.1966238 13.259488,18.0407031 14.0345325,16.8584445 C14.962681,15.5154721 15.3353691,14.19281 15.3501711,14.1249341 C15.3198592,14.1143203 12.8453543,13.1508893 12.8208988,10.2362893 Z" id="路径"></path>
                    <path d="M10.4559929,3.08508241 C11.1023889,2.26045621 11.5446464,1.13852586 11.4218543,0 C10.4863048,0.042252069 9.31636914,0.660177931 8.64262161,1.46672793 C8.04655231,2.17745897 7.51406716,3.34236862 7.65166122,4.43788241 C8.70253746,4.51787897 9.78153746,3.89697207 10.4559929,3.08508241 Z" id="路径"></path>
                    <path d="M30.2126464,19.0791514 L28.5331365,19.0791514 L27.6131612,16.1298272 L24.4152899,16.1298272 L23.5389483,19.0791514 L21.90378,19.0791514 L25.0720474,9.03837207 L27.0288691,9.03837207 L30.2126464,19.0791514 Z M27.335785,14.8924686 L26.503785,12.2705997 C26.4158097,12.0027652 26.2508642,11.3720307 26.0075969,10.3791169 L25.9779929,10.3791169 C25.8811365,10.8061583 25.7250721,11.4368928 25.5105721,12.2705997 L24.6933741,14.8924686 L27.335785,14.8924686 Z" id="形状"></path>
                    <path d="M38.3587553,15.3700893 C38.3587553,16.6014203 38.0326612,17.574679 37.3803444,18.28921 C36.7961167,18.9252514 36.0706266,19.242879 35.204582,19.242879 C34.2698048,19.242879 33.5983097,18.9003548 33.1893246,18.215241 L33.1597206,18.215241 L33.1597206,22.0291962 L31.582988,22.0291962 L31.582988,14.2224893 C31.582988,13.4484031 31.5630375,12.6538755 31.5246167,11.8390376 L32.9112404,11.8390376 L32.99928,12.9866376 L33.0288196,12.9866376 C33.5546761,12.1220066 34.3526315,11.6904445 35.4235226,11.6904445 C36.2606711,11.6904445 36.959582,12.0276617 37.5186464,12.7029479 C38.0792553,13.3789548 38.3587553,14.2677617 38.3587553,15.3700893 Z M36.752483,15.4289238 C36.752483,14.7242203 36.5971909,14.143279 36.2850622,13.6860341 C35.9441662,13.2091997 35.4863345,12.9707824 34.9124681,12.9707824 C34.5234979,12.9707824 34.169988,13.1035859 33.8541909,13.3653928 C33.5376216,13.6294272 33.330587,13.9742445 33.2336662,14.4012859 C33.184884,14.6004583 33.1604929,14.7634652 33.1604929,14.8917479 L33.1604929,16.0989031 C33.1604929,16.6255307 33.3187454,17.0699341 33.6352503,17.4328341 C33.9518196,17.7957341 34.3629929,17.9768238 34.8688345,17.9768238 C35.4627157,17.9768238 35.9249236,17.7429272 36.2555226,17.276641 C36.5868295,16.8096341 36.752483,16.1939686 36.752483,15.4289238 Z" id="形状"></path>
                    <path d="M46.5232701,15.3700893 C46.5232701,16.6014203 46.1971117,17.574679 45.544087,18.28921 C44.9605672,18.9252514 44.2350771,19.242879 43.3690969,19.242879 C42.4342553,19.242879 41.7627602,18.9003548 41.3545474,18.215241 L41.3249434,18.215241 L41.3249434,22.0291962 L39.7482107,22.0291962 L39.7482107,14.2224893 C39.7482107,13.4484031 39.7282602,12.6538755 39.6898394,11.8390376 L41.0764632,11.8390376 L41.1645028,12.9866376 L41.1940424,12.9866376 C41.7191266,12.1220066 42.5171464,11.6904445 43.5887454,11.6904445 C44.425186,11.6904445 45.1240325,12.0276617 45.6846414,12.7029479 C46.2429979,13.3789548 46.5232701,14.2677617 46.5232701,15.3700893 Z M44.9169335,15.4289238 C44.9169335,14.7242203 44.7609335,14.143279 44.4488048,13.6860341 C44.1079087,13.2091997 43.6515573,12.9707824 43.076983,12.9707824 C42.6872404,12.9707824 42.3344384,13.1035859 42.0179335,13.3653928 C41.7013642,13.6294272 41.4950375,13.9742445 41.398181,14.4012859 C41.3501068,14.6004583 41.3249434,14.7634652 41.3249434,14.8917479 L41.3249434,16.0989031 C41.3249434,16.6255307 41.4831959,17.0699341 41.798285,17.4328341 C42.1147899,17.7950134 42.5259632,17.9768238 43.0333493,17.9768238 C43.6271662,17.9768238 44.0893741,17.7429272 44.4199731,17.276641 C44.75128,16.8096341 44.9169335,16.1939686 44.9169335,15.4289238 Z" id="形状"></path>
                    <path d="M55.6478543,16.2633514 C55.6478543,17.1174341 55.3569632,17.81231 54.7734434,18.3487652 C54.1322602,18.9350134 53.2396365,19.2277445 52.0926117,19.2277445 C51.0335622,19.2277445 50.1845721,19.0195307 49.5418444,18.6022514 L49.9071959,17.2615066 C50.5994137,17.6885479 51.3589483,17.9028548 52.1865078,17.9028548 C52.7803889,17.9028548 53.2425969,17.7655307 53.5746761,17.4923893 C53.9052107,17.2193134 54.0701563,16.8526134 54.0701563,16.3953686 C54.0701563,15.9879824 53.9340424,15.6446721 53.6611711,15.3662238 C53.38978,15.087841 52.9363889,14.8290479 52.303379,14.58991 C50.5802355,13.9342134 49.7194038,12.9737962 49.7194038,11.7107548 C49.7194038,10.8853031 50.0211068,10.2085755 50.6253493,9.68194793 C51.2273394,9.15453414 52.0304434,8.89122034 53.0347899,8.89122034 C53.9303741,8.89122034 54.6743345,9.05042724 55.2682157,9.36805483 L54.8740325,10.6793824 C54.3194087,10.3715169 53.6922553,10.2176169 52.990384,10.2176169 C52.4357602,10.2176169 52.002384,10.3571686 51.6917355,10.6348307 C51.4292256,10.8830755 51.2975523,11.1856341 51.2975523,11.5440134 C51.2975523,11.9408514 51.4476959,12.2690928 51.7494632,12.5270997 C52.0119731,12.7655169 52.488983,13.0235893 53.1812008,13.3019721 C54.0280028,13.6498031 54.6499434,14.0564686 55.0500474,14.5227548 C55.4486711,14.9874686 55.6478543,15.5691962 55.6478543,16.2633514 Z" id="路径"></path>
                    <path d="M60.8626563,13.0460617 L59.1243889,13.0460617 L59.1243889,16.5612583 C59.1243889,17.4553066 59.4307256,17.9019376 60.044686,17.9019376 C60.3265672,17.9019376 60.560181,17.877041 60.744884,17.8272479 L60.7886464,19.0488169 C60.4778048,19.1672721 60.0691414,19.2268272 59.5626563,19.2268272 C58.939686,19.2268272 58.4531513,19.0329617 58.1017652,18.6458859 C57.7523097,18.2580893 57.5759731,17.6076997 57.5759731,16.6939962 L57.5759731,13.0445548 L56.540478,13.0445548 L56.540478,11.8373341 L57.5759731,11.8373341 L57.5759731,10.5117238 L59.1243889,10.0348893 L59.1243889,11.8373341 L60.8626563,11.8373341 L60.8626563,13.0460617 Z" id="路径"></path>
                    <path d="M68.7057751,15.3993755 C68.7057751,16.5122514 68.3936464,17.4259548 67.7706761,18.1404203 C67.1174582,18.8760479 66.2512206,19.2427479 65.1706761,19.2427479 C64.1293889,19.2427479 63.300478,18.8903962 62.6820127,18.1856928 C62.0635474,17.4809893 61.7546365,16.5914617 61.7546365,15.5193376 C61.7546365,14.3974203 62.0725573,13.47841 62.7109731,12.7639445 C63.3474582,12.0486928 64.2066167,11.6910341 65.2871612,11.6910341 C66.3284483,11.6910341 67.1663691,12.0433859 67.7989929,12.7488755 C68.4039434,13.4332031 68.7057751,14.3167031 68.7057751,15.3993755 Z M67.0698345,15.4514617 C67.0698345,14.78371 66.930181,14.2110238 66.6463691,13.7334686 C66.3162206,13.155541 65.8432008,12.8673307 65.2311711,12.8673307 C64.5972602,12.8673307 64.1158741,13.1562617 63.785082,13.7334686 C63.5019137,14.21181 63.3622602,14.7935376 63.3622602,15.4815997 C63.3622602,16.1493514 63.5019137,16.7219721 63.785082,17.1988066 C64.1261711,17.7767997 64.6024087,18.06501 65.2170127,18.06501 C65.8193889,18.06501 66.2917652,17.7707721 66.6328543,17.1837376 C66.9231018,16.6970755 67.0698345,16.1184272 67.0698345,15.4514617 Z" id="形状"></path>
                    <path d="M73.8272602,13.2536859 C73.6708741,13.2242686 73.5048345,13.2091997 73.3304285,13.2091997 C72.7756761,13.2091997 72.3464186,13.4227203 72.044587,13.8505479 C71.7826563,14.2277962 71.6507256,14.7046307 71.6507256,15.2802652 L71.6507256,19.0791514 L70.0746365,19.0791514 L70.0894384,14.1191031 C70.0894384,13.2846755 70.069488,12.5248721 70.0302305,11.8398238 L71.4035969,11.8398238 L71.4615177,13.2250548 L71.50528,13.2250548 C71.6713196,12.748941 71.9338939,12.3656652 72.2936464,12.078241 C72.6443889,11.8194479 73.0240919,11.6904445 73.4327553,11.6904445 C73.5788444,11.6904445 73.7101315,11.7009928 73.8272602,11.7198617 L73.8272602,13.2536859 Z" id="路径"></path>
                    <path d="M80.880082,15.1164066 C80.880082,15.4046169 80.8614186,15.6475548 80.8221612,15.845941 L76.0919632,15.845941 C76.1106266,16.5612583 76.3390919,17.1082617 76.7786464,17.48551 C77.1770127,17.8227272 77.6925078,17.9917617 78.3257751,17.9917617 C79.0259731,17.9917617 79.6650325,17.8778272 80.2397355,17.6491721 L80.4862206,18.7658479 C79.814983,19.0646066 79.0221117,19.2132652 78.1076068,19.2132652 C77.0071117,19.2132652 76.1428048,18.8827962 75.514686,18.2226445 C74.8872107,17.5624272 74.5731513,16.6759134 74.5731513,15.5638238 C74.5731513,14.4720445 74.8653295,13.5628617 75.4503295,12.8378479 C76.0623592,12.0636962 76.889983,11.6766859 77.9312701,11.6766859 C78.9538939,11.6766859 79.7281018,12.0636962 80.2545375,12.8378479 C80.6709236,13.4527272 80.880082,14.2132514 80.880082,15.1164066 Z M79.3767157,14.6991272 C79.3870127,14.2222928 79.2840424,13.8103859 79.070379,13.4625548 C78.7975078,13.0151376 78.3779038,12.7917893 77.8134979,12.7917893 C77.2980028,12.7917893 76.8790424,13.0098307 76.5585474,13.4474203 C76.2959731,13.7952514 76.1402305,14.2125307 76.0919632,14.6984066 L79.3767157,14.6991272 Z" id="形状"></path>
                    <path d="M26.8158493,2.86153759 C26.8158493,3.74955828 26.5547553,4.41803069 26.0334038,4.86695483 C25.5504731,5.28115483 24.8641761,5.48864793 23.9752206,5.48864793 C23.5344434,5.48864793 23.1573147,5.46905828 22.8415177,5.42981345 L22.8415177,0.577672069 C23.2533988,0.50977 23.6971365,0.475065517 24.1763988,0.475065517 C25.0232008,0.475065517 25.6614236,0.662929655 26.0918394,1.03867103 C26.5739979,1.46344552 26.8158493,2.07081 26.8158493,2.86153759 Z M25.9986513,2.88342034 C25.9986513,2.30772034 25.84928,1.86634379 25.5504731,1.55851103 C25.2516662,1.25143172 24.8153939,1.09751862 24.2407553,1.09751862 C23.9966513,1.09751862 23.7888444,1.11411414 23.6165622,1.14882517 L23.6165622,4.83753759 C23.7119384,4.85260655 23.8864731,4.85942034 24.1401662,4.85942034 C24.7332751,4.85942034 25.1910424,4.69117207 25.5134681,4.35467552 C25.8359582,4.01817897 25.9986513,3.5277169 25.9986513,2.88342034 Z" id="形状"></path>
                    <path d="M31.1481315,3.63713069 C31.1481315,4.18413414 30.9950276,4.63233759 30.6888196,4.9839031 C30.3678741,5.34529621 29.9426068,5.52559966 29.4116662,5.52559966 C28.8998394,5.52559966 28.4923988,5.35283069 28.1884434,5.00578586 C27.8851959,4.65946172 27.7335721,4.22259276 27.7335721,3.69596517 C27.7335721,3.14522724 27.8896365,2.69328931 28.203181,2.34243138 C28.5167899,1.9915931 28.9383246,1.81579724 29.4693295,1.81579724 C29.9810919,1.81579724 30.3922652,1.98857931 30.7036216,2.33489034 C30.9994681,2.67140655 31.1481315,3.10598241 31.1481315,3.63713069 Z M30.3441909,3.66281345 C30.3441909,3.33457207 30.274686,3.05317552 30.136384,2.81849276 C29.9736909,2.5348031 29.7422008,2.39298448 29.4412058,2.39298448 C29.1298493,2.39298448 28.8932107,2.5348031 28.7305177,2.81849276 C28.5914434,3.05317552 28.5227107,3.33909276 28.5227107,3.67709621 C28.5227107,4.00533759 28.5922157,4.28673414 28.7305177,4.5214169 C28.8983592,4.80510655 29.1321018,4.94695138 29.4338048,4.94695138 C29.7296513,4.94695138 29.9618493,4.80281345 30.128983,4.51388241 C30.2724979,4.27467897 30.3441909,3.99098931 30.3441909,3.66281345 Z" id="形状"></path>
                    <path d="M36.9603543,1.88809552 L35.8695127,5.44475138 L35.1595325,5.44475138 L34.707686,3.90031345 C34.5930672,3.51481 34.499879,3.13146862 34.4274137,2.75120655 L34.4133196,2.75120655 C34.3460672,3.14208241 34.252879,3.52457207 34.1330474,3.90031345 L33.6530771,5.44475138 L32.934988,5.44475138 L31.9092107,1.88809552 L32.705686,1.88809552 L33.0998691,3.57888586 C33.1953097,3.9788031 33.2736959,4.35978586 33.3365721,4.72045828 L33.3506018,4.72045828 C33.4082652,4.42320655 33.5037058,4.04445138 33.6382751,3.58648586 L34.1330474,1.88885552 L34.7646414,1.88885552 L35.2386909,3.55025483 C35.3533097,3.95541345 35.4464979,4.3455031 35.5182553,4.72124448 L35.539686,4.72124448 C35.5922008,4.35526517 35.6712949,3.96524103 35.7763246,3.55025483 L36.1993394,1.88885552 L36.9603543,1.88885552 L36.9603543,1.88809552 Z" id="路径"></path>
                    <path d="M40.9758097,5.44494793 L40.2007652,5.44494793 L40.2007652,3.40782034 C40.2007652,2.78003414 39.967087,2.46619345 39.498186,2.46619345 C39.2681761,2.46619345 39.0825721,2.55223069 38.9383493,2.72499966 C38.7956068,2.89776862 38.7231414,3.10146172 38.7231414,3.33463759 L38.7231414,5.44416172 L37.9480969,5.44416172 L37.9480969,2.90458241 C37.9480969,2.59219621 37.9385078,2.25342621 37.9200375,1.88674586 L38.6011216,1.88674586 L38.6373543,2.44280379 L38.6588493,2.44280379 C38.7490771,2.27002828 38.8836464,2.12743 39.0603691,2.01350207 C39.2704285,1.88071172 39.505587,1.8135631 39.7629483,1.8135631 C40.0883988,1.8135631 40.3590177,1.9206969 40.5742256,2.13572448 C40.8419483,2.39904483 40.9758097,2.79215483 40.9758097,3.31426172 L40.9758097,5.44494793 Z" id="路径"></path>
                    <polygon id="路径" points="43.1137949 5.44488241 42.3394582 5.44488241 42.3394582 0.256244483 43.1137949 0.256244483"></polygon>
                    <path d="M47.677181,3.63713069 C47.677181,4.18413414 47.5240771,4.63233759 47.2178691,4.9839031 C46.8969236,5.34529621 46.4709483,5.52559966 45.9407157,5.52559966 C45.428181,5.52559966 45.0206761,5.35283069 44.7174285,5.00578586 C44.4142454,4.65946172 44.2626216,4.22259276 44.2626216,3.69596517 C44.2626216,3.14522724 44.418686,2.69328931 44.7322305,2.34243138 C45.0458394,1.9915931 45.4673741,1.81579724 45.9976068,1.81579724 C46.5101414,1.81579724 46.9206068,1.98857931 47.2326711,2.33489034 C47.5285177,2.67140655 47.677181,3.10598241 47.677181,3.63713069 Z M46.8725325,3.66281345 C46.8725325,3.33457207 46.8030276,3.05317552 46.6647256,2.81849276 C46.5027404,2.5348031 46.2705424,2.39298448 45.9702553,2.39298448 C45.6581909,2.39298448 45.421488,2.5348031 45.2595672,2.81849276 C45.1204929,3.05317552 45.0517602,3.33909276 45.0517602,3.67709621 C45.0517602,4.00533759 45.1212652,4.28673414 45.2595672,4.5214169 C45.4274087,4.80510655 45.6611513,4.94695138 45.9628543,4.94695138 C46.2587008,4.94695138 46.4901909,4.80281345 46.6573246,4.51388241 C46.8015474,4.27467897 46.8725325,3.99098931 46.8725325,3.66281345 Z" id="形状"></path>
                    <path d="M51.4285177,5.44488241 L50.7326315,5.44488241 L50.6749038,5.0352031 L50.6534731,5.0352031 C50.4153543,5.36193759 50.0758741,5.52559966 49.6350969,5.52559966 C49.3060424,5.52559966 49.0397998,5.41775828 48.8393939,5.20345138 C48.6574582,5.00879966 48.5664582,4.76658241 48.5664582,4.47915828 C48.5664582,4.04458241 48.7439533,3.71332724 49.1011959,3.48395138 C49.4576018,3.25464103 49.9590672,3.14221345 50.6046909,3.14745483 L50.6046909,3.08108586 C50.6046909,2.61257207 50.3636117,2.37864931 49.880681,2.37864931 C49.5367602,2.37864931 49.2335771,2.46692724 48.9717751,2.64198931 L48.8142305,2.12287655 C49.1381365,1.91841034 49.5382404,1.81579724 50.0101018,1.81579724 C50.9211959,1.81579724 51.3782553,2.30622 51.3782553,3.28707207 L51.3782553,4.59682724 C51.3782553,4.95219276 51.3952454,5.23516172 51.4285177,5.44488241 Z M50.6239335,4.22259276 L50.6239335,3.67408241 C49.7689582,3.65901345 49.3415028,3.8982169 49.3415028,4.39090655 C49.3415028,4.57645138 49.3903493,4.71528241 49.4901662,4.80812034 C49.589983,4.90089276 49.7172157,4.94695138 49.8688394,4.94695138 C50.0389335,4.94695138 50.1978939,4.89185138 50.3428889,4.78243759 C50.4885919,4.6723031 50.5780474,4.53275138 50.6113196,4.36142379 C50.6194929,4.32296517 50.6239335,4.27618586 50.6239335,4.22259276 Z" id="形状"></path>
                    <path d="M55.8312701,5.44488241 L55.1434929,5.44488241 L55.1072602,4.8737031 L55.0857652,4.8737031 C54.8661167,5.30834448 54.4919483,5.52559966 53.9660919,5.52559966 C53.5460375,5.52559966 53.1962602,5.35735138 52.918884,5.02085483 C52.6415721,4.68435828 52.5032701,4.24748931 52.5032701,3.71103414 C52.5032701,3.13539966 52.6534137,2.66911345 52.9551167,2.31298793 C53.2472949,1.98101207 53.605181,1.81502414 54.0311563,1.81502414 C54.4993493,1.81502414 54.8269236,1.97573138 55.0132998,2.29789931 L55.0281018,2.29789931 L55.0281018,0.256244483 L55.8035969,0.256244483 L55.8035969,4.48669276 C55.8035969,4.8330169 55.8126068,5.15215138 55.8312701,5.44488241 Z M55.0281018,3.94493069 L55.0281018,3.35193414 C55.0281018,3.24933414 55.0207008,3.16632379 55.0066711,3.10296862 C54.9630375,2.91283759 54.8690771,2.75284448 54.7263988,2.62384103 C54.5821761,2.49481793 54.4083493,2.42993621 54.2079434,2.42993621 C53.9187899,2.42993621 53.6924483,2.54685828 53.526087,2.78154103 C53.3611414,3.01615828 53.2776068,3.3157031 53.2776068,3.6816169 C53.2776068,4.03324793 53.3567008,4.31844448 53.5157256,4.53799276 C53.6835672,4.77188931 53.9099087,4.88883759 54.1931414,4.88883759 C54.4475424,4.88883759 54.6509087,4.79147897 54.8054929,4.59610655 C54.9548642,4.41573759 55.0281018,4.19848241 55.0281018,3.94493069 Z" id="形状"></path>
                    <path d="M62.4593394,3.63713069 C62.4593394,4.18413414 62.3061711,4.63233759 61.9998345,4.9839031 C61.6786959,5.34529621 61.254587,5.52559966 60.7223592,5.52559966 C60.2113691,5.52559966 59.8039929,5.35283069 59.499587,5.00578586 C59.1958246,4.65946172 59.044587,4.22259276 59.044587,3.69596517 C59.044587,3.14522724 59.2003295,2.69328931 59.5143889,2.34243138 C59.8278048,1.9915931 60.2493394,1.81579724 60.7809236,1.81579724 C61.2919137,1.81579724 61.7037949,1.98857931 62.0146365,2.33489034 C62.3106761,2.67140655 62.4593394,3.10598241 62.4593394,3.63713069 Z M61.6561711,3.66281345 C61.6561711,3.33457207 61.5866662,3.05317552 61.4482998,2.81849276 C61.2848345,2.5348031 61.0537949,2.39298448 60.7519632,2.39298448 C60.4417652,2.39298448 60.2049335,2.5348031 60.0414681,2.81849276 C59.9024582,3.05317552 59.8335969,3.33909276 59.8335969,3.67709621 C59.8335969,4.00533759 59.9031018,4.28673414 60.0414681,4.5214169 C60.2094384,4.80510655 60.4430523,4.94695138 60.744884,4.94695138 C61.04028,4.94695138 61.2732503,4.80281345 61.4405771,4.51388241 C61.5834483,4.27467897 61.6561711,3.99098931 61.6561711,3.66281345 Z" id="形状"></path>
                    <path d="M66.6296365,5.44494793 L65.8554285,5.44494793 L65.8554285,3.40782034 C65.8554285,2.78003414 65.6218147,2.46619345 65.1520127,2.46619345 C64.9222602,2.46619345 64.7362701,2.55223069 64.5927553,2.72499966 C64.4492404,2.89776862 64.3778048,3.10146172 64.3778048,3.33463759 L64.3778048,5.44416172 L63.6016662,5.44416172 L63.6016662,2.90458241 C63.6016662,2.59219621 63.5932998,2.25342621 63.5746365,1.88674586 L64.254884,1.88674586 L64.2909236,2.44280379 L64.3128048,2.44280379 C64.4035474,2.27002828 64.5380523,2.12743 64.7143889,2.01350207 C64.9248345,1.88071172 65.1597355,1.8135631 65.4178048,1.8135631 C65.7421612,1.8135631 66.0131018,1.9206969 66.2280523,2.13572448 C66.4964186,2.39904483 66.6296365,2.79215483 66.6296365,3.31426172 L66.6296365,5.44494793 Z" id="路径"></path>
                    <path d="M71.8418642,2.48031897 L70.9884979,2.48031897 L70.9884979,4.20811345 C70.9884979,4.64721 71.1397355,4.86675828 71.44028,4.86675828 C71.5792899,4.86675828 71.694488,4.8547031 71.7858741,4.82980655 L71.8058246,5.4296169 C71.6526563,5.48845138 71.4512206,5.51786862 71.2034483,5.51786862 C70.8977553,5.51786862 70.6596365,5.4228031 70.4871612,5.23267207 C70.3140424,5.04254103 70.2284483,4.72268586 70.2284483,4.27376172 L70.2284483,2.48031897 L69.7187454,2.48031897 L69.7187454,1.8880431 L70.2284483,1.8880431 L70.2284483,1.23616621 L70.9878543,1.00226966 L70.9878543,1.88728966 L71.8412206,1.88728966 L71.8418642,2.48031897 Z" id="路径"></path>
                    <path d="M75.9465177,5.44488241 L75.1710226,5.44488241 L75.1710226,3.42282379 C75.1710226,2.78527552 74.9367652,2.46614759 74.4688939,2.46614759 C74.109785,2.46614759 73.8639434,2.65103069 73.7294384,3.02067897 C73.7062701,3.09838241 73.6933988,3.19344793 73.6933988,3.30515483 L73.6933988,5.44409621 L72.9185474,5.44409621 L72.9185474,0.256244483 L73.6933988,0.256244483 L73.6933988,2.39975241 L73.7082008,2.39975241 C73.9521117,2.00968241 74.3015672,1.81502414 74.75528,1.81502414 C75.0764186,1.81502414 75.3415672,1.92216448 75.5526563,2.13719207 C75.8152305,2.4050331 75.9465177,2.80342379 75.9465177,3.33005138 L75.9465177,5.44488241 Z" id="路径"></path>
                    <path d="M80.1785969,3.49836517 C80.1785969,3.64021 80.1682998,3.75945138 80.15028,3.85674448 L77.8257256,3.85674448 C77.8360226,4.20837552 77.9467157,4.47621 78.1623097,4.66182034 C78.3585969,4.82777552 78.6128048,4.91078586 78.9230028,4.91078586 C79.2666662,4.91078586 79.5807256,4.85496517 79.8632503,4.74253759 L79.9842404,5.29183414 C79.6540919,5.43819966 79.2647355,5.51138241 78.8142404,5.51138241 C78.2742899,5.51138241 77.8495375,5.34916172 77.5419137,5.02472034 C77.2323592,4.70027897 77.0791909,4.2649169 77.0791909,3.71869966 C77.0791909,3.18224448 77.2220622,2.73561345 77.5097355,2.37947483 C77.81028,1.99921276 78.2163691,1.80908172 78.7286464,1.80908172 C79.229983,1.80908172 79.6109731,1.99921276 79.8683988,2.37947483 C80.0762701,2.68129966 80.1785969,3.05474793 80.1785969,3.49836517 Z M79.4391414,3.29395138 C79.4449335,3.05926862 79.3940919,2.85708241 79.2891909,2.68654103 C79.154686,2.46699931 78.9500325,2.35683862 78.6726563,2.35683862 C78.4197355,2.35683862 78.2131513,2.46397897 78.055478,2.67900655 C77.9267652,2.85026862 77.8508246,3.05474793 77.8257256,3.29395138 L79.4391414,3.29395138 Z" id="形状"></path>
                </g>
            </g>
        </g>
    </g>
</svg>