<?xml version="1.0" encoding="UTF-8"?>
<svg width="16px" height="13px" viewBox="0 0 16 13" version="1.1" xmlns="http://www.w3.org/2000/svg" xmlns:xlink="http://www.w3.org/1999/xlink">
    <title>邮箱 (1)@3x</title>
    <g id="页面-1" stroke="none" stroke-width="1" fill="none" fill-rule="evenodd">
        <g id="落地页" transform="translate(-228, -2228)" fill="#FFFFFF" fill-rule="nonzero">
            <g id="编组-12" transform="translate(0, 2061)">
                <g id="邮箱-(1)" transform="translate(228, 167)">
                    <path d="M2.09230769,12.7172923 C0.936758062,12.7172923 0,11.7805342 0,10.6249846 L0,2.09230769 C0,0.936369231 0.936369231,0 2.09230769,0 L13.9076923,0 C15.0636308,0 16,0.936369231 16,2.09230769 L16,10.6249846 C16,11.7805342 15.0632419,12.7172923 13.9076923,12.7172923 L2.09230769,12.7172923 Z M2.09230769,11.4865231 L13.9076923,11.4865231 C14.3835069,11.4865231 14.7692308,11.1007992 14.7692308,10.6249846 L14.7692308,2.09230769 C14.7692308,1.61649314 14.3835069,1.23076923 13.9076923,1.23076923 L2.09230769,1.23076923 C1.61649314,1.23076923 1.23076923,1.61649314 1.23076923,2.09230769 L1.23076923,10.6249846 C1.23076923,11.1015385 1.61673846,11.4865231 2.09230769,11.4865231 Z" id="形状"></path>
                    <path d="M0.837907692,3.95815385 C0.532298802,3.80915592 0.405340533,3.44062428 0.554338462,3.13501538 C0.70333639,2.82940649 1.07186803,2.70244823 1.37747692,2.85144615 L7.83852308,6.00516923 C7.93993846,6.0544 8.06006154,6.0544 8.16147692,6.00516923 L14.6225231,2.85144615 C14.8202174,2.75506139 15.0543151,2.77146685 15.2366339,2.89448275 C15.4189527,3.01749864 15.521794,3.22843594 15.5064185,3.44783659 C15.491043,3.66723725 15.3597866,3.86176909 15.1620923,3.95815385 L8.70203077,7.11089231 C8.25895385,7.32750769 7.74104615,7.32750769 7.29796923,7.11089231 L0.837907692,3.95815385 Z" id="路径"></path>
                </g>
            </g>
        </g>
    </g>
</svg>