<?xml version="1.0" encoding="UTF-8"?>
<svg width="24px" height="24px" viewBox="0 0 24 24" version="1.1" xmlns="http://www.w3.org/2000/svg" xmlns:xlink="http://www.w3.org/1999/xlink">
    <title>fb@2x</title>
    <g id="页面-1" stroke="none" stroke-width="1" fill="none" fill-rule="evenodd">
        <g id="落地页" transform="translate(-44, -2128)">
            <g id="编组-12" transform="translate(0, 2061)">
                <g id="fb" transform="translate(44, 67)">
                    <circle id="椭圆形备份-5" fill="#111827" cx="12" cy="12" r="12"></circle>
                    <g id="facebook" transform="translate(8.4104, 4.8)" fill="#FFFFFF" fill-rule="nonzero">
                        <path d="M7.15758467,0.0994109005 L7.15758467,2.28645067 L5.85695876,2.28645067 C5.38199558,2.28645067 5.06167157,2.38586156 4.89598673,2.58468335 C4.7303019,2.78350514 4.64745948,3.08173784 4.64745949,3.47938144 L4.64745949,5.04510309 L7.07474227,5.04510309 L6.75165684,7.49723858 L4.64745949,7.49723858 L4.64745949,13.7849779 L2.11248158,13.7849779 L2.11248158,7.49723858 L0,7.49723858 L0,5.04510309 L2.11248158,5.04510309 L2.11248158,3.23913843 C2.11248158,2.21189249 2.39966862,1.4152246 2.97404271,0.849134763 C3.54841679,0.283044931 4.31332843,0 5.26877761,0 C6.08063328,0 6.71023563,0.0331369668 7.15758467,0.0994109005 Z" id="路径"></path>
                    </g>
                </g>
            </g>
        </g>
    </g>
</svg>