<?xml version="1.0" encoding="UTF-8"?>
<svg width="142px" height="36px" viewBox="0 0 142 36" version="1.1" xmlns="http://www.w3.org/2000/svg" xmlns:xlink="http://www.w3.org/1999/xlink">
    <title>google@3x</title>
    <g id="页面-1" stroke="none" stroke-width="1" fill="none" fill-rule="evenodd">
        <g id="落地页" transform="translate(-217, -2077)">
            <g id="编组-12" transform="translate(0, 2061)">
                <g id="google" transform="translate(217, 16)">
                    <rect id="矩形" fill="#FFFFFF" x="0" y="0" width="142" height="36" rx="18"></rect>
                    <g id="编组-11" transform="translate(31, 9)" fill-rule="nonzero">
                        <path d="M67.8590259,16.1278722 L69.1573061,16.1278722 L69.1573061,7.31775861 L67.8590259,7.31775861 L67.8590259,16.1278722 Z M79.5555684,10.4916289 L78.0668485,14.3110105 L78.0225602,14.3110105 L76.4775309,10.4916289 L75.078653,10.4916289 L77.396197,15.8297813 L76.0745073,18.7993508 L77.4290969,18.7993508 L81,10.4918852 L79.5555684,10.4916289 Z M72.1904226,15.1271889 C71.7658875,15.1271889 71.1724241,14.9116127 71.1724241,14.3789827 C71.1724241,13.6990049 71.9114062,13.4383275 72.5491579,13.4383275 C73.1198444,13.4383275 73.3887377,13.5628043 73.7354519,13.7328948 C73.6348541,14.5490732 72.9407931,15.1271889 72.1904226,15.1271889 Z M72.3479624,10.2989237 C71.4077849,10.2989237 70.4340748,10.7184163 70.0310511,11.6477962 L71.1838126,12.1350047 C71.429929,11.6477962 71.8886294,11.4892372 72.3701066,11.4892372 C73.0420235,11.4892372 73.7246961,11.896942 73.7354519,12.6225335 L73.7354519,12.7130563 C73.5000912,12.5770479 72.9964698,12.3731315 72.381495,12.3731315 C71.1382589,12.3731315 69.8735113,13.0643205 69.8735113,14.356432 C69.8735113,15.5351499 70.8927751,16.2945674 72.0341481,16.2945674 C72.9066278,16.2945674 73.3887377,15.8978816 73.6905309,15.4330315 L73.7354519,15.4330315 L73.7354519,16.1134578 L74.9894437,16.1134578 L74.9894437,12.7356069 C74.9894437,11.1715427 73.8360496,10.2989237 72.3479624,10.2989237 Z M64.3222881,11.5640642 L62.4748329,11.5640642 L62.4748329,8.54439651 L64.3222881,8.54439651 C65.2928347,8.54439651 65.8439078,9.35814043 65.8439078,10.0541983 C65.8439078,10.7369309 65.2928347,11.5640642 64.3222881,11.5640642 Z M64.2887555,7.31801486 L61.1771854,7.31801486 L61.1771854,16.1281285 L62.4748329,16.1281285 L62.4748329,12.7904459 L64.2887555,12.7904459 C65.7281255,12.7904459 67.1428207,11.7356283 67.1428207,10.0545187 C67.1428207,8.37372939 65.7281255,7.31801486 64.2887555,7.31801486 Z M47.3208919,15.1286623 C46.423674,15.1286623 45.6728606,14.3677714 45.6728606,13.3237166 C45.6728606,12.2674895 46.423674,11.4958999 47.3208919,11.4958999 C48.2065948,11.4958999 48.9017314,12.2675536 48.9017314,13.3237166 C48.9017314,14.3677714 48.2065948,15.1286623 47.3208919,15.1286623 Z M48.8119527,10.9847954 L48.767095,10.9847954 C48.4756779,10.6329546 47.9147981,10.3150679 47.2088424,10.3150679 C45.7286006,10.3150679 44.3720497,11.6321645 44.3720497,13.3237166 C44.3720497,15.0037371 45.7286006,16.3093021 47.2088424,16.3093021 C47.9147981,16.3093021 48.4756779,15.9913513 48.767095,15.6282993 L48.8119527,15.6282993 L48.8119527,16.0593235 C48.8119527,17.2063936 48.2065948,17.819168 47.2311131,17.819168 C46.4353787,17.819168 45.942007,17.2402195 45.739989,16.7521141 L44.60779,17.2288802 C44.9326764,18.0232767 45.7957923,19 47.2311764,19 C48.756276,19 50.0456352,18.0915691 50.0456352,15.8776373 L50.0456352,10.496626 L48.812016,10.496626 L48.8119527,10.9847954 Z M50.9427898,16.127616 L52.2427782,16.127616 L52.2427782,7.31750235 L50.9427898,7.31750235 L50.9427898,16.127616 Z M54.1602089,13.2213419 C54.1267396,12.0632528 55.046418,11.473029 55.7075792,11.473029 C56.2238543,11.473029 56.6604105,11.7342829 56.806562,12.1086743 L54.1602089,13.2213419 Z M58.1965822,12.222068 C57.949833,11.5526608 57.1988298,10.3150679 55.6626582,10.3150679 C54.1376219,10.3150679 52.8707864,11.5297899 52.8707864,13.312185 C52.8707864,14.9924618 54.1267396,16.3093662 55.8081769,16.3093662 C57.1646646,16.3093662 57.949833,15.4694841 58.2750358,14.9811224 L57.265895,14.2998633 C56.9293038,14.7995003 56.4699708,15.1287264 55.8081769,15.1287264 C55.147079,15.1287264 54.6759147,14.822115 54.3736786,14.2203596 L58.3307125,12.5629538 L58.1965822,12.222068 Z M26.6645713,11.23471 L26.6645713,12.5061929 L29.6693433,12.5061929 C29.5796278,13.221406 29.3441405,13.7435295 28.985342,14.1069019 C28.5479,14.5495217 27.863962,15.0378193 26.664508,15.0378193 C24.8145221,15.0378193 23.3682557,13.5280174 23.3682557,11.6547792 C23.3682557,9.78154096 24.8145221,8.27148287 26.664508,8.27148287 C27.6624502,8.27148287 28.3910561,8.66893739 28.9292856,9.1797856 L29.8152416,8.28269411 C29.0637955,7.55626975 28.0661065,7 26.664508,7 C24.1302677,7 22,9.08894251 22,11.6547792 C22,14.2202955 24.1302677,16.3093662 26.664508,16.3093662 C28.0321943,16.3093662 29.0638588,15.8551508 29.8709816,15.0037371 C30.7007547,14.1635987 30.9587025,12.9829589 30.9587025,12.0291706 C30.9587025,11.734347 30.9360522,11.4618177 30.8912577,11.23471 L26.6645713,11.23471 Z M34.3751659,15.1286623 C33.4780113,15.1286623 32.7042946,14.379367 32.7042946,13.312185 C32.7042946,12.2336636 33.4780113,11.495964 34.3751659,11.495964 C35.2719409,11.495964 36.0456577,12.2336636 36.0456577,13.312185 C36.0456577,14.379367 35.2719409,15.1286623 34.3751659,15.1286623 Z M34.3751659,10.3150679 C32.7377006,10.3150679 31.4037367,11.5751473 31.4037367,13.312185 C31.4037367,15.0378193 32.7377006,16.3093662 34.3751659,16.3093662 C36.0119353,16.3093662 37.3462155,15.0378193 37.3462155,13.312185 C37.3462155,11.5751473 36.0119353,10.3150679 34.3751659,10.3150679 Z M40.8565069,15.1286623 C39.9599218,15.1286623 39.1860152,14.379367 39.1860152,13.312185 C39.1860152,12.2336636 39.959985,11.495964 40.8565069,11.495964 C41.7536616,11.495964 42.527062,12.2336636 42.527062,13.312185 C42.527062,14.379367 41.7536616,15.1286623 40.8565069,15.1286623 Z M40.8565069,10.3150679 C39.2196743,10.3150679 37.8857104,11.5751473 37.8857104,13.312185 C37.8857104,15.0378193 39.2196743,16.3093662 40.8565069,16.3093662 C42.493909,16.3093662 43.8279362,15.0378193 43.8279362,13.312185 C43.8279362,11.5751473 42.493909,10.3150679 40.8565069,10.3150679 Z" id="形状" fill="#040104"></path>
                        <g id="编组-18">
                            <path d="M7.47002477,8.59629086 L0.0690791163,16.5043545 C0.0693951232,16.505945 0.0699007343,16.5073447 0.0702167413,16.5089989 C0.297172923,17.3677163 1.07631963,18 2.00101912,18 C2.37062084,18 2.71765965,17.8994123 3.01527499,17.7227953 L3.0389123,17.7088619 L11.3701192,12.8693912 L7.47002477,8.59629086 Z" id="路径" fill="#EB3131"></path>
                            <path d="M14.9588835,7.2499681 L14.951805,7.24506914 L11.3549508,5.14602465 L7.30266749,8.77602536 L11.3690448,12.8689458 L14.9468753,10.7907696 C15.5741491,10.4498785 16,9.78419277 16,9.01658329 C16,8.25438176 15.5799636,7.59200445 14.9588835,7.2499681 Z" id="路径" fill="#F6B60B"></path>
                            <path d="M0.0678150885,1.49490116 C0.0233845133,1.66006603 0,1.83305652 0,2.01272739 L0,15.98691 C0,16.1661991 0.0230685064,16.3397622 0.0681310955,16.5043545 L7.72459995,8.7984206 L0.0678150885,1.49490116 Z" id="路径" fill="#5778C5"></path>
                            <path d="M7.52532598,9.00004135 L11.3563413,5.14468857 L3.03455141,0.287632464 C2.73206957,0.105257614 2.37902662,0 2.00127193,0 C1.07657243,0 0.296414506,0.633435283 0.0693951232,1.49318334 C0.0690791163,1.49401044 0.0690791163,1.49458305 0.0690791163,1.4952829 L7.52532598,9.00004135 Z" id="路径" fill="#3BAD49"></path>
                        </g>
                        <path d="M26.1986779,1.86671139 L24.1720958,1.86671139 L24.1720958,2.32591845 L25.6907061,2.32591845 C25.6494646,2.70068693 25.4866458,2.99494959 25.211976,3.20864859 C24.9373693,3.42240543 24.5867216,3.52974653 24.1720958,3.52974653 C23.7172391,3.52974653 23.3319181,3.38463941 23.0160699,3.09639155 C22.7066638,2.80212889 22.5493397,2.43829116 22.5493397,1.99996241 C22.5493397,1.56163366 22.7066638,1.19778435 23.0160699,0.903579531 C23.3319181,0.615331674 23.7172391,0.471178829 24.1720958,0.471178829 C24.4055241,0.471178829 24.6280263,0.507950094 24.8320234,0.588484834 C25.0361469,0.668961738 25.2000393,0.78130553 25.3281217,0.925464159 L25.7135058,0.57258609 C25.5386872,0.390638306 25.3173219,0.251505508 25.0425889,0.15010403 C24.7679822,0.0486967686 24.4814389,2.89173204e-05 24.1720327,2.89173204e-05 C23.5652833,2.89173204e-05 23.0508063,0.192855397 22.6306859,0.57755987 C22.2105655,0.963207047 22,1.43838803 22,1.99996241 C22,2.56153678 22.2105655,3.03774723 22.6306859,3.42246326 C23.0507431,3.80706363 23.5652833,4 24.1720327,4 C24.8092237,4 25.3172587,3.81307844 25.7080111,3.43333618 C26.0520905,3.11726986 26.2279196,2.68987185 26.2279196,2.15507492 C26.2279196,2.06462154 26.2160461,1.96809552 26.1986779,1.86671139 Z M26.9837827,0.0854217664 L26.9837827,3.91440473 L29.4250537,3.91440473 L29.4250537,3.44420909 L27.5211225,3.44420909 L27.5211225,2.22956594 L29.2383616,2.22956594 L29.2383616,1.77035888 L27.5211225,1.77035888 L27.5211225,0.556635296 L29.4250537,0.556635296 L29.4250537,0.0854217664 L26.9837827,0.0854217664 Z M32.8482267,0.556646863 L32.8482267,0.0854333333 L29.9748986,0.0854333333 L29.9748986,0.556646863 L31.1429243,0.556646863 L31.1429243,3.91440473 L31.680201,3.91440473 L31.680201,0.556646863 L32.8482267,0.556646863 Z M35.4495376,0.0854333333 L34.9122609,0.0854333333 L34.9122609,3.91440473 L35.4495376,3.91440473 L35.4495376,0.0854333333 Z M38.9961194,0.556646863 L38.9961194,0.0854333333 L36.1228544,0.0854333333 L36.1228544,0.556646863 L37.2907538,0.556646863 L37.2907538,3.91440473 L37.8280936,3.91440473 L37.8280936,0.556646863 L38.9961194,0.556646863 Z M44.4181485,0.583493704 C44.0034596,0.19282648 43.4954878,0 42.8886752,0 C42.280789,0 41.7728172,0.192820697 41.3581283,0.577525169 C40.9434394,0.957255862 40.7394423,1.43335642 40.7394423,1.99990457 C40.7394423,2.56645273 40.9435025,3.04266317 41.3581283,3.42240543 C41.7728172,3.80706363 42.280789,3.99994217 42.8886752,3.99994217 C43.4899931,3.99994217 44.0034596,3.80706363 44.4181485,3.42240543 C44.8328374,3.04266317 45.0368346,2.56651056 45.0368346,1.99990457 C45.0368346,1.4383302 44.8327743,0.963149212 44.4181485,0.583493704 Z M41.7435124,0.90354483 C42.0528554,0.615296974 42.432808,0.471144128 42.8886752,0.471144128 C43.3434689,0.471144128 43.7234214,0.615302757 44.0273329,0.90354483 C44.3367391,1.18683047 44.4886317,1.55654421 44.4886317,1.99990457 C44.4886317,2.44430596 44.3367391,2.81300181 44.0273329,3.09633372 C43.7234214,3.38458157 43.3434689,3.52968869 42.8886752,3.52968869 C42.432808,3.52968869 42.0528554,3.38458157 41.7435124,3.09633372 C41.4406114,2.80704484 41.2886556,2.44424813 41.2886556,1.99990457 C41.2886556,1.55654421 41.4406114,1.19278744 41.7435124,0.90354483 Z M46.3134272,1.52976677 L46.2906275,0.791177904 L46.3134272,0.791177904 L48.4387868,3.91440473 L49,3.91440473 L49,0.0853986325 L48.4626602,0.0853986325 L48.4626602,2.32591845 L48.4854599,3.06452466 L48.4626602,3.06452466 L46.4306466,0.0853986325 L45.7760874,0.0853986325 L45.7760874,3.91440473 L46.3134272,3.91440473 L46.3134272,1.52976677 Z" id="形状" stroke="#040104" stroke-width="0.293326" fill="#040104"></path>
                    </g>
                </g>
            </g>
        </g>
    </g>
</svg>