<?xml version="1.0" encoding="UTF-8"?>
<svg width="104px" height="28px" viewBox="0 0 104 28" version="1.1" xmlns="http://www.w3.org/2000/svg" xmlns:xlink="http://www.w3.org/1999/xlink">
    <title>logo@3x</title>
    <defs>
        <linearGradient x1="100%" y1="48.4086894%" x2="7.07701165e-13%" y2="50%" id="linearGradient-1">
            <stop stop-color="#00647A" offset="0%"></stop>
            <stop stop-color="#014453" stop-opacity="0.362079327" offset="54.9511912%"></stop>
            <stop stop-color="#000000" stop-opacity="0" offset="100%"></stop>
        </linearGradient>
        <linearGradient x1="100%" y1="39.9409999%" x2="-8.55069936e-14%" y2="39.9409999%" id="linearGradient-2">
            <stop stop-color="#FE3344" offset="0%"></stop>
            <stop stop-color="#FF760F" offset="100%"></stop>
        </linearGradient>
        <linearGradient x1="100%" y1="39.9409999%" x2="-8.55069936e-14%" y2="39.9409999%" id="linearGradient-3">
            <stop stop-color="#FE3344" offset="0%"></stop>
            <stop stop-color="#FF760F" offset="100%"></stop>
        </linearGradient>
    </defs>
    <g id="页面-1" stroke="none" stroke-width="1" fill="none" fill-rule="evenodd">
        <g id="落地页" transform="translate(-14, -14)">
            <g id="logo" transform="translate(14, 14)">
                <rect id="矩形" fill="#000000" x="0" y="0" width="28" height="28" rx="6.46153846"></rect>
                <g id="LOGO" transform="translate(4.5161, 3.7935)">
                    <path d="M5.92927668,3.3039076 L12.4236828,3.30422387 C14.9090003,3.3043449 16.9753767,5.21760423 17.1664607,7.69556507 L17.6596987,14.0918355 C17.8616966,16.7113273 15.9019305,18.9985966 13.2824387,19.2005945 C13.1465338,19.2110746 13.0102413,19.2157085 12.8739384,19.2144836 L5.88706624,19.1516918 C3.27667329,19.1282319 1.1728535,17.0055233 1.17272632,14.3950249 L1.17195434,8.06076666 C1.17182635,5.43349801 3.30154464,3.3035722 5.92881329,3.30344421 C5.92896776,3.3034442 5.92912223,3.3034442 5.9292767,3.30344421 Z" id="矩形" fill="url(#linearGradient-1)" transform="translate(9.6153, 11.2824) rotate(-7) translate(-9.6153, -11.2824)"></path>
                    <path d="M8.55014977,0 C11.0729248,0 13.118038,2.04428988 13.118038,4.56604923 L11.6734922,4.56604923 C11.6734922,2.84176933 10.2751241,1.44396429 8.55014977,1.44396429 C6.82517541,1.44396429 5.42680739,2.84176933 5.42680739,4.56604923 L3.98226154,4.56604923 C3.98226154,2.04428988 6.02737476,0 8.55014977,0 Z" id="形状结合" fill="url(#linearGradient-2)"></path>
                    <path d="M11.6340533,5.04745755 C11.6340533,5.47870114 11.9836453,5.82829315 12.4148889,5.82829315 C12.8461325,5.82829315 13.1957245,5.47870114 13.1957245,5.04745755 L13.1957245,4.56129032 L13.7489144,4.56129032 C15.5402339,4.56129032 16.9923853,6.01344172 16.9923853,7.80476126 L16.9923853,14.522452 C16.9923853,16.3137715 15.5402339,17.7659229 13.7489144,17.7659229 L6.46500043,17.7659229 C5.18505085,17.7659229 3.95151528,18.2453071 3.00745806,19.1096143 L2.10763567,19.9334234 C1.74237428,20.267829 1.26511199,20.4533056 0.769891831,20.4533056 C0.344692314,20.4533056 0,20.1086133 0,19.6834138 L4.4408921e-16,7.26418277 C4.4408921e-16,5.77141649 1.21012617,4.56129032 2.70289245,4.56129032 L3.94282273,4.56129032 L3.94282273,5.04745755 C3.94282273,5.47870114 4.29241473,5.82829315 4.72365832,5.82829315 C5.15490191,5.82829315 5.50449392,5.47870114 5.50449392,5.04745755 L5.50449392,4.56129032 L11.6340533,4.56129032 Z" id="形状结合" fill="url(#linearGradient-3)"></path>
                    <path d="M12.8987097,11.4968065 C13.0351634,11.5040859 13.1419355,11.614592 13.1419355,11.750036 C13.1419355,11.7544958 13.1418197,11.7589286 13.141591,11.7633316 L13.1419355,11.8774194 C13.1419355,14.4464342 11.0593374,16.5290323 8.49032258,16.5290323 C5.92130771,16.5290323 3.83870968,14.4464342 3.83870968,11.8774194 C3.83870968,9.30840449 5.92130771,7.22580645 8.49032258,7.22580645 C10.3794063,7.22580645 12.0054766,8.35190037 12.7338812,9.9694358 C12.7465662,9.99080337 12.7528106,10.0162002 12.7528106,10.0430692 L12.7447444,9.99374575 L12.7447097,9.99680645 L12.7528106,10.0430692 C12.7528106,10.117354 12.7050806,10.1803867 12.6384464,10.2026284 L12.5853765,10.2111998 L10.8047097,10.2098065 C10.7980234,10.2111643 10.7962742,10.2111238 10.7945354,10.2110437 C10.7548281,10.2071842 10.7256939,10.189036 10.7075143,10.1627363 L10.6290501,10.0667934 C10.1150415,9.46024857 9.34764347,9.07524291 8.49032258,9.07524291 C6.94272326,9.07524291 5.68814613,10.32982 5.68814613,11.8774194 C5.68814613,13.4250187 6.94272326,14.6795958 8.49032258,14.6795958 C9.60646283,14.6795958 10.5701904,14.0270397 11.0207982,13.0826347 L8.73820742,13.0823552 C8.52392444,13.0823552 8.35021376,12.9086445 8.35021376,12.6943616 L8.35021376,11.8849571 C8.35021376,11.6706741 8.52392444,11.4969635 8.73820742,11.4969635 L12.8987097,11.4968065 Z" id="形状结合" fill="#FFFFFF"></path>
                </g>
                <path d="M45.277,13.476 C45.4478925,13.4837293 45.5823972,13.6260617 45.5823972,13.8007471 C45.5823972,13.8076422 45.5821877,13.8144869 45.5817748,13.8212748 L45.5797179,13.7808982 C45.5814999,13.8417315 45.5823972,13.9027937 45.5823972,13.9640719 C45.5823972,17.2579378 42.9895893,19.9281437 39.7911986,19.9281437 C36.5928079,19.9281437 34,17.2579378 34,13.9640719 C34,10.6702059 36.5928079,8 39.7911986,8 C42.1337777,8 44.1514948,9.43241963 45.0635578,11.4931595 C45.0851474,11.5268739 45.0979418,11.5679625 45.0979418,11.6121573 C45.0979418,11.7312127 45.005093,11.8277261 44.8894885,11.8277261 L42.674,11.826 C42.6174377,11.8276807 42.57433,11.8016629 42.5494358,11.7623077 L42.4722402,11.6650638 C41.8322967,10.8744218 40.8688046,10.3712575 39.7911986,10.3712575 C37.8644572,10.3712575 36.3025248,11.9798153 36.3025248,13.9640719 C36.3025248,15.9483284 37.8644572,17.5568862 39.7911986,17.5568862 C41.1808226,17.5568862 42.3806829,16.720158 42.9416613,15.5092263 L39.9656323,15.508982 C39.7729582,15.508982 39.6167649,15.3527888 39.6167649,15.1601146 L39.6167649,13.8251372 C39.6167649,13.6324631 39.7729582,13.4762698 39.9656323,13.4762698 L45.277,13.476 Z M46.5800192,8.57095756 L46.5800192,19.452137 C46.5800192,19.6062763 46.7049738,19.7312309 46.8591131,19.7312309 L53.0183585,19.7312309 C53.1724978,19.7312309 53.2974524,19.6062763 53.2974524,19.452137 L53.2974524,17.6672017 C53.2974524,17.5130624 53.1724978,17.3881078 53.0183585,17.3881078 L49.2999262,17.3881078 C49.1457869,17.3881078 49.0208323,17.2631532 49.0208323,17.1090139 L49.0208323,8.57095756 C49.0208323,8.41681825 48.8958777,8.29186365 48.7417384,8.29186365 L46.8591131,8.29186365 C46.7049738,8.29186365 46.5800192,8.41681825 46.5800192,8.57095756 Z M59.5719794,8 C62.7896375,8 65.3980648,10.6862915 65.3980648,14 C65.3980648,17.3137085 62.7896375,20 59.5719794,20 C56.3543214,20 53.7458941,17.3137085 53.7458941,14 C53.7458941,10.6862915 56.3543214,8 59.5719794,8 Z M59.5719794,10.4071856 C57.6452381,10.4071856 56.0833056,12.0157434 56.0833056,14 C56.0833056,15.9842566 57.6452381,17.5928144 59.5719794,17.5928144 C61.4987208,17.5928144 63.0606533,15.9842566 63.0606533,14 C63.0606533,12.0157434 61.4987208,10.4071856 59.5719794,10.4071856 Z M76.7489395,8.23217969 L83.1804773,8.23217969 C83.3346166,8.23217969 83.4595712,8.35713429 83.4595712,8.5112736 L83.4595712,10.2804653 C83.4595712,10.4346046 83.3346166,10.5595592 83.1804773,10.5595592 L79.0832913,10.5595592 C78.9291519,10.5595592 78.8041973,10.6845138 78.8041973,10.8386531 L78.8041973,12.5265976 C78.8041973,12.6807369 78.9291519,12.8056915 79.0832913,12.8056915 L82.8152164,12.8056915 C82.9693558,12.8056915 83.0943104,12.9306461 83.0943104,13.0847854 L83.0943104,14.6974367 C83.0943104,14.851576 82.9693558,14.9765306 82.8152164,14.9765306 L79.0832913,14.9765306 C78.9291519,14.9765306 78.8041973,15.1014852 78.8041973,15.2556245 L78.8041973,17.2256733 C78.8041973,17.3798126 78.9291519,17.5047672 79.0832913,17.5047672 L83.1804773,17.5047672 C83.3346166,17.5047672 83.4595712,17.6297218 83.4595712,17.7838611 L83.4595712,19.471278 C83.4595712,19.6254173 83.3346166,19.7503719 83.1804773,19.7503719 L76.7489395,19.7503719 C76.5948002,19.7503719 76.4698456,19.6254173 76.4698456,19.471278 L76.4698456,8.5112736 C76.4698456,8.35713429 76.5948002,8.23217969 76.7489395,8.23217969 Z M90.9120605,8.23217969 C91.0292649,8.23217969 91.1339828,8.30540767 91.174205,8.41549422 L95.1786473,19.3754986 C95.2315448,19.520277 95.1570607,19.680525 95.0122823,19.7334225 C94.981594,19.744635 94.9491753,19.7503719 94.9165029,19.7503719 L92.9037523,19.7503719 C92.8133452,19.7503719 92.7331543,19.6923288 92.7049095,19.606447 L92.1357589,17.8751797 L87.5887589,17.8751797 L87.0234511,19.6061171 C86.995309,19.6921672 86.9150351,19.7503719 86.8245001,19.7503719 L84.9528528,19.7503719 C84.7987135,19.7503719 84.6737589,19.6254173 84.6737589,19.471278 C84.6737589,19.4394514 84.6792026,19.4078593 84.6898546,19.3778682 L88.5825498,8.41786382 C88.6220859,8.30654853 88.72742,8.23217969 88.8455479,8.23217969 L90.9120605,8.23217969 Z M89.9375074,11.1918329 L89.7752889,11.1918329 L88.3257589,15.6201797 L91.3937589,15.6201797 L89.9375074,11.1918329 Z M95.851171,8.23217969 L103.720906,8.23217969 C103.875045,8.23217969 104,8.35713429 104,8.5112736 L104,10.3220219 C104,10.4761612 103.875045,10.6011158 103.720906,10.6011158 L101.260326,10.6011158 C101.106186,10.6011158 100.981232,10.7260704 100.981232,10.8802097 L100.981232,19.503264 C100.981232,19.6574033 100.856277,19.7823579 100.702138,19.7823579 L98.9227692,19.7823579 C98.7686299,19.7823579 98.6436753,19.6574033 98.6436753,19.503264 L98.6436753,10.8802097 C98.6436753,10.7260704 98.5187207,10.6011158 98.3645814,10.6011158 L95.851171,10.6011158 C95.6970317,10.6011158 95.5720771,10.4761612 95.5720771,10.3220219 L95.5720771,8.5112736 C95.5720771,8.35713429 95.6970317,8.23217969 95.851171,8.23217969 Z M71.9494812,8.25149701 C73.4178311,8.25149701 74.6081638,9.44182977 74.6081638,10.9101796 C74.6081638,12.3785295 73.4178311,13.5688623 71.9494812,13.5688623 L66.7586476,13.5688623 L66.7586476,8.53059092 C66.7586476,8.37645161 66.8836022,8.25149701 67.0377415,8.25149701 L71.9494812,8.25149701 Z M70.7905177,10.5149701 L69.0262856,10.5149701 C68.949216,10.5149701 68.8867387,10.5774474 68.8867387,10.654517 L68.8867387,12.6018305 C68.8867387,12.6789002 68.949216,12.7413775 69.0262856,12.7413775 L70.7905177,12.7413775 C71.4053232,12.7413775 71.9037214,12.2429792 71.9037214,11.6281738 C71.9037214,11.0133683 71.4053232,10.5149701 70.7905177,10.5149701 Z M72.0775727,13.5688623 C73.7641908,13.5688623 75.1314649,14.9361364 75.1314649,16.6227545 C75.1314649,18.3093726 73.7641908,19.6766467 72.0775727,19.6766467 L67.0377415,19.6766467 C66.8836022,19.6766467 66.7586476,19.5516921 66.7586476,19.3975528 L66.7586476,13.5688623 L72.0775727,13.5688623 Z M71.2068798,14.8896973 L69.0116191,14.8896973 C68.9345495,14.8896973 68.8720722,14.9521746 68.8720722,15.0292442 L68.8720722,17.3369767 C68.8720722,17.4140463 68.9345495,17.4765236 69.0116191,17.4765236 L71.2068798,17.4765236 C71.9212122,17.4765236 72.500293,16.8974428 72.500293,16.1831104 C72.500293,15.4687781 71.9212122,14.8896973 71.2068798,14.8896973 Z" id="形状结合" fill="#FFFFFF"></path>
            </g>
        </g>
    </g>
</svg>