<?xml version="1.0" encoding="UTF-8"?>
<svg width="24px" height="24px" viewBox="0 0 24 24" version="1.1" xmlns="http://www.w3.org/2000/svg" xmlns:xlink="http://www.w3.org/1999/xlink">
    <title>编组 32</title>
    <g id="页面-1" stroke="none" stroke-width="1" fill="none" fill-rule="evenodd">
        <g id="落地页" transform="translate(-12, -2128)">
            <g id="编组-12" transform="translate(0, 2061)">
                <g id="编组-32" transform="translate(12, 67)">
                    <circle id="椭圆形" fill="#111827" cx="12" cy="12" r="12"></circle>
                    <g id="推特1" transform="translate(4.8003, 6.0018)" fill="#FFFFFF" fill-rule="nonzero">
                        <path d="M12.9338634,3.51371176 C12.9338634,3.37863477 12.9312726,3.24508178 12.9253037,3.11244318 C13.502721,2.68219324 14.0037098,2.14361246 14.3999492,1.5273078 C13.8618441,1.76943393 13.2892451,1.92608965 12.7028254,1.99161909 C13.3131611,1.61602987 13.7812315,1.01534619 14.0024144,0.294495281 C13.4309407,0.641077758 12.7988119,0.888854367 12.1267035,1.01796238 C11.5881735,0.405188306 10.8196723,0.0148925065 9.97009438,0.000389133054 C8.33845167,-0.0265856248 7.01577409,1.35225126 7.01577408,3.07970263 C7.01577408,3.32524406 7.04145344,3.56336869 7.09243117,3.79331454 C4.63539132,3.63519978 2.45813205,2.35626093 1.00172367,0.428251481 C0.747597052,0.890175174 0.601801284,1.43002596 0.601801284,2.00856086 C0.601801284,3.10279118 1.12338949,4.0753303 1.91589368,4.64921703 C1.43072902,4.62727146 0.976247508,4.48033269 0.57762052,4.23941405 L0.57762052,4.2795968 C0.57762052,5.80892847 1.59631137,7.09028031 2.9479957,7.38923785 C2.70019368,7.45972274 2.43882809,7.49640029 2.17002029,7.49507948 C1.98325474,7.49411451 1.79709601,7.4737272 1.61454853,7.43424658 C1.99013775,8.68750607 3.08172649,9.60312387 4.37405112,9.63362922 C3.36262466,10.4722597 2.08853722,10.9731978 0.705255328,10.9696926 C0.466749689,10.9696926 0.231063455,10.9536906 0,10.9246838 C1.307971,11.8218867 2.86056903,12.3444403 4.52960048,12.3444403 C9.96265218,12.3457355 12.9338634,7.61674529 12.9338634,3.51371176 L12.9338634,3.51371176 Z" id="路径"></path>
                    </g>
                </g>
            </g>
        </g>
    </g>
</svg>